<svg xmlns="http://www.w3.org/2000/svg" xmlns:xlink="http://www.w3.org/1999/xlink" viewBox="0 0 111.78 159.42"><defs><style>.cls-1{fill:none;}.cls-2{clip-path:url(#clip-path);}.cls-3{fill:#c8d93d;}.cls-4{fill:#deaf76;}.cls-5{fill:#3398db;}.cls-6{fill:#ca9561;}.cls-7{fill:#d0a16f;}.cls-8{fill:#181818;}.cls-9{fill:#d68a64;}.cls-10{fill:#1a87c4;}.cls-11{fill:#2c2c2b;}.cls-12{clip-path:url(#clip-path-2);}.cls-13{fill:#d04642;}.cls-14{clip-path:url(#clip-path-3);}.cls-15{fill:#fff;}.cls-16{fill:#f3ebd1;}.cls-17{fill:#ef201b;}.cls-18{fill:#ff3f33;}.cls-19{fill:#e5d9b7;}</style><clipPath id="clip-path"><circle class="cls-1" cx="55.89" cy="55.89" r="55.89" transform="translate(-10.04 99.48) rotate(-78.47)"/></clipPath><clipPath id="clip-path-2"><path class="cls-1" d="M54.14,38.9A7.47,7.47,0,0,0,60,38.69l.08,0c2.88-1.41,5.56,2.76,2,5.23S53,46,50.6,43.28C48.49,40.88,50.46,37.51,54.14,38.9Z"/></clipPath><clipPath id="clip-path-3"><path class="cls-1" d="M54.21,38.82A7.36,7.36,0,0,0,60,38.61l.09,0c2.88-1.4,5.56,2.76,2,5.24s-9,2.13-11.42-.61C48.56,40.81,50.52,37.44,54.21,38.82Z"/></clipPath></defs><title>Asset 13</title><g id="Layer_2" data-name="Layer 2"><g id="OBJECTS"><g class="cls-2"><circle class="cls-3" cx="55.89" cy="55.89" r="55.89" transform="translate(-10.04 99.48) rotate(-78.47)"/><path class="cls-4" d="M69.57,74.58s11.73-1.86,14,9.6,8.11,73.48,8.11,73.48l-4.2,1.76L76.07,96.07S76.36,78.88,69.57,74.58Z"/><path class="cls-4" d="M42.2,74.22s-11.81-2.3-14,9.16-8.11,73.48-8.11,73.48l4.2,1.76L35.62,95.28S35.41,78.52,42.2,74.22Z"/><path class="cls-5" d="M43.49,73.85c5.95-.94,14.07-2.15,24.18.06,4.83,1.06,8.17,6.4,8.1,11.34-.15,11,1.67,29.56,2.83,34.41,2.31,9.64-9.3,12.79-21.93,12.13s-21.75,0-21.94-11.8c-.16-10.68.05-14.29,0-36.29C34.68,78.14,38,74.71,43.49,73.85Z"/><path class="cls-5" d="M76.07,96.07l.5,2.8h9c-.79-6.67-1.5-12-2-14.69-2.22-11.46-14-9.6-14-9.6C76.36,78.88,76.07,96.07,76.07,96.07Z"/><path class="cls-5" d="M35,98.87l.64-3.59s-.21-16.76,6.58-21.06c0,0-11.81-2.3-14,9.16-.54,2.76-1.28,8.45-2.11,15.49Z"/><path class="cls-4" d="M56.26,79.25h0a5.83,5.83,0,0,0,5.83-5.83V65.21a2.35,2.35,0,0,0-2.35-2.35h-7a2.36,2.36,0,0,0-2.35,2.35v8.21A5.84,5.84,0,0,0,56.26,79.25Z"/><path class="cls-6" d="M50.43,72.65V66.77H62.09V73A25,25,0,0,1,50.43,72.65Z"/><path class="cls-4" d="M84,31.79s2.68,38.53-27.61,38.35S29,30.39,29,30.39s-.17-17.34,30.13-18.07A24.93,24.93,0,0,1,80.33,23,22.76,22.76,0,0,1,84,31.79Z"/><path class="cls-7" d="M42.54,20.08a.5.5,0,0,1,.22.83,13,13,0,0,1-3,2c4.85,4.79,10.49,6.4,17.29,6.63a40.49,40.49,0,0,0,11-1c3-.75,5.91-2,9-2.64a.52.52,0,0,1,.64.49,8.24,8.24,0,0,0,6.16,6.89c0-.61,0-.95,0-.95a22.76,22.76,0,0,0-3.66-8.85A24.9,24.9,0,0,0,58.9,12.91c-13.32.32-20.75,3.85-24.9,7.71A20.79,20.79,0,0,1,42.54,20.08Z"/><path class="cls-7" d="M73.17,61c6.44-5.11,9.54-13.12,9.7-21.11A73.55,73.55,0,0,0,81,24.46a17.92,17.92,0,0,1,3,7.33s2.67,38.53-27.62,38.35c-7.33,0-12.71-2.38-16.67-5.9C50.39,68.84,64.33,68,73.17,61Z"/><path class="cls-8" d="M64.87,34.07c0,1.9-.49,3.47-1.19,3.49s-1.3-1.49-1.34-3.39.49-3.46,1.19-3.49,1.3,1.49,1.34,3.39"/><path class="cls-8" d="M50.87,34.07c0,1.9-.49,3.47-1.19,3.49s-1.3-1.49-1.34-3.39.49-3.46,1.19-3.49,1.3,1.49,1.34,3.39"/><path class="cls-4" d="M83.21,36S100.51,24.42,100,45a13.1,13.1,0,0,1-4.29,9.59c-3.52,3-9.43,4.48-18.1-4.94Z"/><path class="cls-6" d="M92.45,44.25A4.52,4.52,0,1,1,88.79,39,4.56,4.56,0,0,1,92.45,44.25Z"/><path class="cls-6" d="M80.47,44.59s7-9.53,12.93-3.59C93.4,41,87.65,32.87,80.47,44.59Z"/><path class="cls-4" d="M31.79,34.71S14.49,23.19,15,43.79a13.1,13.1,0,0,0,4.28,9.58c3.52,3.06,9.44,4.49,18.11-4.93Z"/><path class="cls-6" d="M19.63,43.55a4.52,4.52,0,1,0,3.66-5.29A4.54,4.54,0,0,0,19.63,43.55Z"/><path class="cls-6" d="M31.6,43.89s-7-9.53-12.93-3.6C18.67,40.29,24.42,32.17,31.6,43.89Z"/><path class="cls-9" d="M67.46,41a6.43,6.43,0,1,0,6.62-6,6.29,6.29,0,0,0-6.62,6"/><path class="cls-9" d="M32.36,41A6.43,6.43,0,1,0,39,35a6.27,6.27,0,0,0-6.61,6"/><path class="cls-10" d="M75.81,89.82c-6.93,7.76-19.29,11.34-28.85,6.4-3.17-1.63-6.57-6.2-8.41-8.93A11.6,11.6,0,0,0,34.7,83.7h0s-.13,25.61,0,36.29c.19,11.75,9.31,11.13,21.94,11.8s24.24-2.49,21.93-12.13C77.59,115.43,76.08,100.77,75.81,89.82Z"/><path class="cls-11" d="M54.14,38.9A7.47,7.47,0,0,0,60,38.69l.08,0c2.88-1.41,5.56,2.76,2,5.23S53,46,50.6,43.28C48.49,40.88,50.46,37.51,54.14,38.9Z"/><g class="cls-12"><path class="cls-13" d="M62,44s.34-3.08-5-.65c0,0-4.45-2.43-5.72.68C51.29,44,55.62,47.93,62,44Z"/></g><g class="cls-14"><path class="cls-15" d="M63.31,38.18s1.54,2-2.2,2.7a64.13,64.13,0,0,1-8.9.36c-3.6-.55-2.42-2.65-2.42-2.65S62,36.7,63.31,38.18Z"/></g><path class="cls-16" d="M84,35.45s-2.5-.51-6.5-12.51c0,0-20,11-42,0,0,0,7,1,10-2,0,0-13.26-5.59-16.63,12.2,0,0-10.37-20.2,23.63-23.2,0,0-3-6,2-2,0,0,7-5,4,2C58.53,9.94,89.53,14,84,35.45Z"/><path class="cls-17" d="M72.53,73.94s16-4,16,48l-14,9s1.69-42.53-12.66-50.77Z"/><path class="cls-18" d="M40.53,64.94s9.71,7.81,33.36-1.09L75.41,75s-14.88,13.94-35.88-.06Z"/><path class="cls-19" d="M82.27,25c-2.52-.42-4.15-2.6-6.3-3.76-3.34-1.81-7,.66-10.2,1.71-4.89,1.59-12.4.53-16.66-2.46a19,19,0,0,1-2.36-2.47c-1.44-1.42-2.71-1.2-4.55-1.12-3,.12-6,.42-9-.19a.5.5,0,0,1-.37-.48,1,1,0,0,1,.1-.4c-9.34,7-4.06,17.27-4.06,17.27,3.37-17.79,16.63-12.2,16.63-12.2-3,3-10,2-10,2,22,11,42,0,42,0,4,12,6.5,12.51,6.5,12.51a16.86,16.86,0,0,0-.3-10.31A4.82,4.82,0,0,1,82.27,25Z"/></g></g></g></svg>