<?xml version="1.0" encoding="utf-8"?>
<!-- Generator: Adobe Illustrator 23.1.0, SVG Export Plug-In . SVG Version: 6.00 Build 0)  -->
<svg version="1.1" id="Layer_1" xmlns="http://www.w3.org/2000/svg" xmlns:xlink="http://www.w3.org/1999/xlink" x="0px" y="0px"
	 viewBox="0 0 111.8 111.8" style="enable-background:new 0 0 111.8 111.8;" xml:space="preserve">
<style type="text/css">
	.st0{clip-path:url(#SVGID_2_);}
	.st1{fill:#FBA026;}
	.st2{fill:#DEAF76;}
	.st3{fill:#161616;}
	.st4{fill:#B8372F;}
	.st5{fill:#070707;}
	.st6{fill:#C1915D;}
	.st7{fill:#B7824E;}
	.st8{opacity:0.51;fill:#B7824E;enable-background:new    ;}
	.st9{fill:#181818;}
	.st10{fill:#CA9561;}
	.st11{fill:#D68A64;}
	.st12{fill:#2C2C2B;}
	.st13{clip-path:url(#SVGID_4_);}
	.st14{fill:#D04642;}
	.st15{clip-path:url(#SVGID_6_);}
	.st16{fill:#FFFFFF;}
	.st17{fill:#F2CB03;}
</style>
<title>Asset 11</title>
<g>
	<g id="OBJECTS">
		<g>
			<defs>
				<circle id="SVGID_1_" cx="55.9" cy="55.9" r="55.9"/>
			</defs>
			<clipPath id="SVGID_2_">
				<use xlink:href="#SVGID_1_"  style="overflow:visible;"/>
			</clipPath>
			<g class="st0">
				<circle class="st1" cx="55.9" cy="55.9" r="55.9"/>
				<path class="st2" d="M42,83.7c0,0-11.7-2.3-13.9,9.1s-8,72.7-8,72.7l4.1,1.7l11.3-62.7C35.5,104.6,35.3,88,42,83.7z"/>
				<path class="st3" d="M43.2,83.3c5.9-0.9,13.9-2.1,23.9,0.1c4.8,1,8.1,6.3,8,11.2c-0.2,10.8,1.7,29.3,2.8,34.1
					c2.3,9.5-9.2,12.7-21.7,12s-21.5,0-21.7-11.7c-0.2-10.6,0-14.2,0-35.9C34.5,87.6,37.8,84.2,43.2,83.3z"/>
				<path class="st4" d="M34.8,108.1l0.6-3.6c0,0-0.2-16.6,6.5-20.9c0,0-11.7-2.3-13.9,9.1c-0.5,2.7-1.3,8.4-2.1,15.3H34.8z"/>
				<path class="st5" d="M75.2,99.1c-6.8,7.7-19.1,11.2-28.5,6.3c-3.1-1.6-6.5-6.1-8.3-8.8c-1-1.5-2.3-2.7-3.8-3.6l0,0
					c0,0-0.1,25.4,0,35.9c0.2,11.6,9.2,11,21.7,11.7s24-2.5,21.7-12C77,124.5,75.5,110,75.2,99.1z"/>
				<path class="st3" d="M42,83.7c0,0-11.7-2.3-13.9,9.1s-8,72.7-8,72.7l4.1,1.7l11.3-62.7C35.5,104.6,35.3,88,42,83.7z"/>
				<path class="st3" d="M67.3,83.7c0,0,11.7-2.3,13.9,9.1s8,72.7,8,72.7l-4.2,1.7l-11.3-62.7C73.8,104.6,74.1,88,67.3,83.7z"/>
				<path class="st6" d="M55.9,88.7L55.9,88.7c3.2,0,5.8-2.6,5.8-5.8v-8.1c0-1.3-1-2.3-2.3-2.3c0,0,0,0,0,0h-6.9
					c-1.3,0-2.3,1-2.3,2.3c0,0,0,0,0,0v8.1C50.1,86.1,52.7,88.7,55.9,88.7z"/>
				<path class="st7" d="M50.1,82.1v-5.8h11.5v6.1C57.8,83.3,53.9,83.2,50.1,82.1z"/>
				<path class="st6" d="M83.3,41.7c0,0,2.7,38.1-27.3,38S28.9,40.3,28.9,40.3s-0.2-17.2,29.8-17.9c8.3-0.3,16.2,3.7,21,10.6
					C81.5,35.6,82.7,38.6,83.3,41.7z"/>
				<path class="st8" d="M72.6,70.6c6.4-5.1,9.4-13,9.6-20.9c-0.1-5.1-0.7-10.2-1.8-15.2c1.5,2.2,2.5,4.6,2.9,7.3
					c0,0,2.7,38.1-27.3,38c-7.3,0-12.6-2.4-16.5-5.8C50.1,78.4,63.9,77.5,72.6,70.6z"/>
				<path class="st9" d="M64.4,44c0,1.9-0.5,3.4-1.2,3.5s-1.2-1.5-1.3-3.4s0.5-3.4,1.2-3.5S64.4,42.1,64.4,44"/>
				<path class="st9" d="M50.5,44c0,1.9-0.5,3.4-1.2,3.5S48.1,46,48,44.1s0.5-3.4,1.2-3.5S50.5,42.1,50.5,44"/>
				<path class="st6" d="M82.6,45.8c0,0,17.1-11.4,16.6,9c0,3.6-1.6,7.1-4.3,9.5c-3.5,3-9.3,4.4-17.9-4.9L82.6,45.8z"/>
				<path class="st10" d="M91.7,54c-0.5,2.4-2.8,4-5.2,3.6s-4-2.8-3.6-5.2c0.5-2.4,2.8-4,5.2-3.6C90.5,49.2,92.2,51.5,91.7,54
					C91.7,54,91.7,54,91.7,54z"/>
				<path class="st10" d="M79.9,54.4c0,0,7-9.4,12.8-3.6C92.7,50.8,87,42.8,79.9,54.4z"/>
				<path class="st6" d="M31.7,44.6c0,0-17.1-11.4-16.6,9c0,3.6,1.6,7.1,4.3,9.5c3.5,3,9.3,4.4,17.9-4.9L31.7,44.6z"/>
				<path class="st7" d="M19.6,53.3c0.5,2.4,2.8,4,5.2,3.6s4-2.8,3.6-5.2c-0.5-2.4-2.8-4-5.2-3.6C20.8,48.6,19.2,50.9,19.6,53.3
					C19.6,53.3,19.6,53.3,19.6,53.3z"/>
				<path class="st7" d="M31.5,53.7c0,0-7-9.4-12.8-3.6C18.7,50.1,24.4,42.1,31.5,53.7z"/>
				<path class="st11" d="M67,50.8c-0.2,3.5,2.5,6.5,6,6.7s6.5-2.5,6.7-6c0.2-3.5-2.5-6.5-6-6.7c-0.1,0-0.1,0-0.2,0
					C70.1,44.7,67.2,47.3,67,50.8"/>
				<path class="st11" d="M32.2,50.8c-0.2,3.5,2.5,6.5,6,6.7c3.5,0.2,6.5-2.5,6.7-6s-2.5-6.5-6-6.7c-0.1,0-0.1,0-0.2,0
					C35.3,44.7,32.4,47.3,32.2,50.8"/>
				<path class="st12" d="M53.8,49.8c1.9,0.7,4,0.7,5.8-0.2h0.1c2.9-1.4,5.6,2.8,2,5.2s-9,2.1-11.4-0.6
					C48.1,51.8,50.1,48.5,53.8,49.8z"/>
				<g>
					<defs>
						<path id="SVGID_3_" d="M53.8,49.8c1.9,0.7,4,0.7,5.8-0.2h0.1c2.9-1.4,5.6,2.8,2,5.2s-9,2.1-11.4-0.6
							C48.1,51.8,50.1,48.5,53.8,49.8z"/>
					</defs>
					<clipPath id="SVGID_4_">
						<use xlink:href="#SVGID_3_"  style="overflow:visible;"/>
					</clipPath>
					<g class="st13">
						<path class="st14" d="M61.7,55c0,0,0.3-3.1-5-0.7c0,0-4.5-2.4-5.7,0.7C50.9,55,55.3,58.9,61.7,55z"/>
					</g>
				</g>
				<g>
					<defs>
						<path id="SVGID_5_" d="M53.8,49.8c1.9,0.7,4,0.7,5.8-0.2h0.1c2.9-1.4,5.6,2.8,2,5.2s-9,2.1-11.4-0.6
							C48.2,51.8,50.2,48.4,53.8,49.8z"/>
					</defs>
					<clipPath id="SVGID_6_">
						<use xlink:href="#SVGID_5_"  style="overflow:visible;"/>
					</clipPath>
					<g class="st15">
						<path class="st16" d="M62.9,49.1c0,0,1.6,2-2.2,2.7c-3,0.3-5.9,0.5-8.9,0.4c-3.6-0.5-2.4-2.7-2.4-2.7S61.6,47.7,62.9,49.1z"/>
					</g>
				</g>
				<polygon class="st17" points="55.9,93.1 59.3,99.9 66.8,101 61.4,106.4 62.7,113.9 55.9,110.4 49.1,113.9 50.4,106.4 44.9,101 
					52.5,99.9 				"/>
			</g>
		</g>
	</g>
</g>
</svg>
