<?xml version="1.0" encoding="utf-8"?>
<!-- Generator: Adobe Illustrator 23.1.0, SVG Export Plug-In . SVG Version: 6.00 Build 0)  -->
<svg version="1.1" id="Layer_1" xmlns="http://www.w3.org/2000/svg" xmlns:xlink="http://www.w3.org/1999/xlink" x="0px" y="0px"
	 viewBox="0 0 111.8 111.8" style="enable-background:new 0 0 111.8 111.8;" xml:space="preserve">
<style type="text/css">
	.st0{clip-path:url(#SVGID_2_);}
	.st1{fill:#C8D93D;}
	.st2{fill:#DEAF76;}
	.st3{fill:#3398DB;}
	.st4{fill:#CA9561;}
	.st5{fill:#D0A16F;}
	.st6{fill:#181818;}
	.st7{fill:#D68A64;}
	.st8{fill:#1A87C4;}
	.st9{fill:#2C2C2B;}
	.st10{clip-path:url(#SVGID_4_);}
	.st11{fill:#D04642;}
	.st12{clip-path:url(#SVGID_6_);}
	.st13{fill:#FFFFFF;}
	.st14{fill:#F3EBD1;}
	.st15{fill:#EF201B;}
	.st16{fill:#FF3F33;}
	.st17{fill:#E5D9B7;}
</style>
<title>Asset 13</title>
<g>
	<g id="OBJECTS">
		<g>
			<defs>
				<circle id="SVGID_1_" cx="55.9" cy="55.9" r="55.9"/>
			</defs>
			<clipPath id="SVGID_2_">
				<use xlink:href="#SVGID_1_"  style="overflow:visible;"/>
			</clipPath>
			<g class="st0">
				<circle class="st1" cx="55.9" cy="55.9" r="55.9"/>
				<path class="st2" d="M69.6,74.6c0,0,11.7-1.9,14,9.6s8.1,73.5,8.1,73.5l-4.2,1.8L76.1,96.1C76.1,96.1,76.4,78.9,69.6,74.6z"/>
				<path class="st2" d="M42.2,74.2c0,0-11.8-2.3-14,9.2s-8.1,73.5-8.1,73.5l4.2,1.8l11.3-63.3C35.6,95.3,35.4,78.5,42.2,74.2z"/>
				<path class="st3" d="M43.5,73.8c6-0.9,14.1-2.2,24.2,0.1c4.8,1.1,8.2,6.4,8.1,11.3c-0.2,11,1.7,29.6,2.8,34.4
					c2.3,9.6-9.3,12.8-21.9,12.1s-21.8,0-21.9-11.8c-0.2-10.7,0-14.3,0-36.3C34.7,78.1,38,74.7,43.5,73.8z"/>
				<path class="st3" d="M76.1,96.1l0.5,2.8h9c-0.8-6.7-1.5-12-2-14.7c-2.2-11.5-14-9.6-14-9.6C76.4,78.9,76.1,96.1,76.1,96.1z"/>
				<path class="st3" d="M35,98.9l0.6-3.6c0,0-0.2-16.8,6.6-21.1c0,0-11.8-2.3-14,9.2c-0.5,2.8-1.3,8.4-2.1,15.5H35z"/>
				<path class="st2" d="M56.3,79.2L56.3,79.2c3.2,0,5.8-2.6,5.8-5.8v-8.2c0-1.3-1.1-2.4-2.3-2.4h-7c-1.3,0-2.3,1.1-2.3,2.4v8.2
					C50.4,76.6,53,79.3,56.3,79.2C56.2,79.3,56.3,79.3,56.3,79.2z"/>
				<path class="st4" d="M50.4,72.6v-5.9h11.7V73C58.2,73.8,54.2,73.7,50.4,72.6z"/>
				<path class="st2" d="M84,31.8c0,0,2.7,38.5-27.6,38.4S29,30.4,29,30.4S28.8,13,59.1,12.3c8.4-0.2,16.4,3.8,21.2,10.7
					C82.2,25.6,83.4,28.6,84,31.8z"/>
				<path class="st5" d="M42.5,20.1c0.3,0.1,0.4,0.4,0.3,0.6c0,0.1-0.1,0.2-0.1,0.2c-0.9,0.8-1.9,1.5-3,2c4.8,4.8,10.5,6.4,17.3,6.6
					c3.7,0.2,7.4-0.2,11-1c3-0.8,5.9-2,9-2.6c0.3-0.1,0.6,0.1,0.6,0.4c0,0,0,0.1,0,0.1c0.5,3.3,2.9,6.1,6.2,6.9c0-0.6,0-1,0-1
					c-0.6-3.2-1.8-6.2-3.7-8.9c-4.8-6.9-12.9-10.9-21.3-10.6c-13.3,0.3-20.8,3.9-24.9,7.7C36.8,19.8,39.7,19.7,42.5,20.1z"/>
				<path class="st5" d="M73.2,61c6.4-5.1,9.5-13.1,9.7-21.1c-0.1-5.2-0.7-10.4-1.9-15.4c1.5,2.2,2.6,4.7,3,7.3
					c0,0,2.7,38.5-27.6,38.4c-7.3,0-12.7-2.4-16.7-5.9C50.4,68.8,64.3,68,73.2,61z"/>
				<path class="st6" d="M64.9,34.1c0,1.9-0.5,3.5-1.2,3.5s-1.3-1.5-1.3-3.4s0.5-3.5,1.2-3.5C64.2,30.6,64.8,32.2,64.9,34.1"/>
				<path class="st6" d="M50.9,34.1c0,1.9-0.5,3.5-1.2,3.5s-1.3-1.5-1.3-3.4s0.5-3.5,1.2-3.5S50.8,32.2,50.9,34.1"/>
				<path class="st2" d="M83.2,36c0,0,17.3-11.6,16.8,9c0,3.7-1.6,7.1-4.3,9.6c-3.5,3-9.4,4.5-18.1-4.9L83.2,36z"/>
				<path class="st4" d="M92.4,44.2c-0.4,2.5-2.8,4.1-5.2,3.6c-2.5-0.4-4.1-2.8-3.6-5.2c0.4-2.5,2.8-4.1,5.2-3.7
					C91.2,39.5,92.9,41.8,92.4,44.2z"/>
				<path class="st4" d="M80.5,44.6c0,0,7-9.5,12.9-3.6C93.4,41,87.7,32.9,80.5,44.6z"/>
				<path class="st2" d="M31.8,34.7c0,0-17.3-11.5-16.8,9.1c0,3.7,1.6,7.1,4.3,9.6c3.5,3.1,9.4,4.5,18.1-4.9L31.8,34.7z"/>
				<path class="st4" d="M19.6,43.5c0.5,2.5,2.8,4.1,5.3,3.6s4.1-2.8,3.6-5.3c-0.5-2.4-2.8-4-5.2-3.6C20.8,38.7,19.2,41.1,19.6,43.5
					C19.6,43.5,19.6,43.5,19.6,43.5z"/>
				<path class="st4" d="M31.6,43.9c0,0-7-9.5-12.9-3.6C18.7,40.3,24.4,32.2,31.6,43.9z"/>
				<path class="st7" d="M67.5,41c-0.2,3.5,2.4,6.6,6,6.8c3.5,0.2,6.6-2.4,6.8-6c0.2-3.5-2.4-6.6-6-6.8c-0.1,0-0.1,0-0.2,0
					C70.6,34.8,67.6,37.5,67.5,41C67.5,41,67.5,41,67.5,41"/>
				<path class="st7" d="M32.4,41c-0.2,3.5,2.4,6.6,6,6.8c3.5,0.2,6.6-2.4,6.8-6s-2.4-6.6-6-6.8c-0.1,0-0.1,0-0.2,0
					C35.5,34.8,32.6,37.5,32.4,41C32.4,40.9,32.4,41,32.4,41"/>
				<path class="st8" d="M75.8,89.8c-6.9,7.8-19.3,11.3-28.8,6.4c-3.2-1.6-6.6-6.2-8.4-8.9c-1-1.5-2.3-2.7-3.8-3.6l0,0
					c0,0-0.1,25.6,0,36.3c0.2,11.7,9.3,11.1,21.9,11.8s24.2-2.5,21.9-12.1C77.6,115.4,76.1,100.8,75.8,89.8z"/>
				<path class="st9" d="M54.1,38.9c1.9,0.7,4,0.7,5.9-0.2h0.1c2.9-1.4,5.6,2.8,2,5.2S53,46,50.6,43.3
					C48.5,40.9,50.5,37.5,54.1,38.9z"/>
				<g>
					<defs>
						<path id="SVGID_3_" d="M54.1,38.9c1.9,0.7,4,0.7,5.9-0.2h0.1c2.9-1.4,5.6,2.8,2,5.2S53,46,50.6,43.3
							C48.5,40.9,50.5,37.5,54.1,38.9z"/>
					</defs>
					<clipPath id="SVGID_4_">
						<use xlink:href="#SVGID_3_"  style="overflow:visible;"/>
					</clipPath>
					<g class="st10">
						<path class="st11" d="M62,44c0,0,0.3-3.1-5-0.7c0,0-4.5-2.4-5.7,0.7C51.3,44,55.6,47.9,62,44z"/>
					</g>
				</g>
				<g>
					<defs>
						<path id="SVGID_5_" d="M54.2,38.8c1.9,0.7,4,0.6,5.8-0.2h0.1c2.9-1.4,5.6,2.8,2,5.2s-9,2.1-11.4-0.6
							C48.6,40.8,50.5,37.4,54.2,38.8z"/>
					</defs>
					<clipPath id="SVGID_6_">
						<use xlink:href="#SVGID_5_"  style="overflow:visible;"/>
					</clipPath>
					<g class="st12">
						<path class="st13" d="M63.3,38.2c0,0,1.5,2-2.2,2.7c-3,0.3-5.9,0.4-8.9,0.4c-3.6-0.5-2.4-2.7-2.4-2.7S62,36.7,63.3,38.2z"/>
					</g>
				</g>
				<path class="st14" d="M84,35.4c0,0-2.5-0.5-6.5-12.5c0,0-20,11-42,0c0,0,7,1,10-2c0,0-13.3-5.6-16.6,12.2
					c0,0-10.4-20.2,23.6-23.2c0,0-3-6,2-2c0,0,7-5,4,2C58.5,9.9,89.5,14,84,35.4z"/>
				<path class="st15" d="M72.5,73.9c0,0,16-4,16,48l-14,9c0,0,1.7-42.5-12.7-50.8L72.5,73.9z"/>
				<path class="st16" d="M40.5,64.9c0,0,9.7,7.8,33.4-1.1L75.4,75c0,0-14.9,13.9-35.9-0.1L40.5,64.9z"/>
				<path class="st17" d="M82.3,25c-2.5-0.4-4.2-2.6-6.3-3.8c-3.3-1.8-7,0.7-10.2,1.7c-4.9,1.6-12.4,0.5-16.7-2.5
					c-0.9-0.8-1.6-1.6-2.4-2.5c-1.4-1.4-2.7-1.2-4.5-1.1c-3,0.1-6,0.4-9-0.2c-0.2-0.1-0.4-0.3-0.4-0.5c0-0.1,0-0.3,0.1-0.4
					c-9.3,7-4.1,17.3-4.1,17.3c3.4-17.8,16.6-12.2,16.6-12.2c-3,3-10,2-10,2c22,11,42,0,42,0c4,12,6.5,12.5,6.5,12.5
					c1-3.4,0.9-7-0.3-10.3C83.2,25.1,82.7,25.1,82.3,25z"/>
			</g>
		</g>
	</g>
</g>
</svg>
