<svg xmlns="http://www.w3.org/2000/svg" xmlns:xlink="http://www.w3.org/1999/xlink" viewBox="0 0 111.78 161.47"><defs><style>.cls-1{fill:none;}.cls-2{clip-path:url(#clip-path);}.cls-3{fill:#f27404;}.cls-4{fill:#deaf76;}.cls-5{fill:#18384d;}.cls-6{fill:#ca9561;}.cls-7{fill:#d0a16f;}.cls-8{fill:#181818;}.cls-9{fill:#d68a64;}.cls-10{fill:#0f2b3a;}.cls-11{fill:#2c2c2b;}.cls-12{clip-path:url(#clip-path-2);}.cls-13{fill:#d04642;}.cls-14{clip-path:url(#clip-path-3);}.cls-15{fill:#fff;}.cls-16{fill:#f2cb03;}.cls-17{fill:#ffd62c;}.cls-18{fill:#e84c3d;}</style><clipPath id="clip-path"><circle class="cls-1" cx="55.89" cy="55.89" r="55.89"/></clipPath><clipPath id="clip-path-2"><path class="cls-1" d="M53,45.77a7.08,7.08,0,0,0,5.53-.2l.08,0c2.73-1.33,5.27,2.62,1.87,5s-8.55,2-10.83-.57C47.6,47.65,49.46,44.45,53,45.77Z"/></clipPath><clipPath id="clip-path-3"><path class="cls-1" d="M53,45.7a7.08,7.08,0,0,0,5.53-.2l.08,0c2.73-1.33,5.27,2.62,1.87,5s-8.55,2-10.83-.57C47.66,47.58,49.52,44.38,53,45.7Z"/></clipPath></defs><title>Asset 10</title><g id="Layer_2" data-name="Layer 2"><g id="OBJECTS"><g class="cls-2"><circle class="cls-3" cx="55.89" cy="55.89" r="55.89"/><path class="cls-4" d="M67.5,79.89s11.27-1.79,13.41,9.23,7.8,70.66,7.8,70.66l-4,1.69L73.74,100.56S74,84,67.5,79.89Z"/><path class="cls-5" d="M42.42,79.19c5.72-.91,13.53-2.06,23.25.06,4.64,1,7.85,6.15,7.79,10.9-.14,10.54,1.61,28.42,2.72,33.09,2.22,9.26-9,12.3-21.09,11.66S34.18,134.85,34,123.56c-.16-10.27,0-13.75,0-34.9C34,83.32,37.14,80,42.42,79.19Z"/><path class="cls-5" d="M73.74,100.56l.49,2.69h8.62c-.76-6.42-1.44-11.58-1.94-14.13-2.14-11-13.41-9.23-13.41-9.23C74,84,73.74,100.56,73.74,100.56Z"/><path class="cls-4" d="M41.59,79.89S30.32,78.1,28.18,89.12s-7.8,70.66-7.8,70.66l4,1.69,10.93-60.91S35.06,84,41.59,79.89Z"/><path class="cls-5" d="M35.35,100.56l-.49,2.69H26.24c.76-6.42,1.44-11.58,1.94-14.13,2.14-11,13.41-9.23,13.41-9.23C35.06,84,35.35,100.56,35.35,100.56Z"/><path class="cls-4" d="M54.7,84.38h0a5.6,5.6,0,0,0,5.6-5.6v-7.9a2.25,2.25,0,0,0-2.25-2.25H51.34a2.25,2.25,0,0,0-2.25,2.25v7.9A5.61,5.61,0,0,0,54.7,84.38Z"/><path class="cls-6" d="M49.09,78V72.39H60.31v6A24.18,24.18,0,0,1,49.09,78Z"/><path class="cls-4" d="M81.36,38.75s2.57,37-26.56,36.88S28.46,37.41,28.46,37.41s-.15-16.68,29-17.38A23.94,23.94,0,0,1,77.84,30.24,22.17,22.17,0,0,1,81.36,38.75Z"/><path class="cls-7" d="M71,66.81c6.19-4.92,9.17-12.62,9.32-20.3a69.77,69.77,0,0,0-1.76-14.8,17,17,0,0,1,2.85,7s2.57,37-26.56,36.88c-7,0-12.22-2.29-16-5.68C49.05,74.37,62.46,73.56,71,66.81Z"/><path class="cls-8" d="M63,40.94c0,1.83-.48,3.33-1.15,3.36S60.58,42.86,60.54,41s.48-3.32,1.15-3.35,1.25,1.44,1.29,3.26"/><path class="cls-8" d="M49.52,40.94c0,1.83-.48,3.33-1.15,3.36S47.12,42.86,47.08,41s.48-3.32,1.15-3.35,1.25,1.44,1.29,3.26"/><path class="cls-4" d="M80.61,42.75s16.63-11.08,16.14,8.72a12.63,12.63,0,0,1-4.13,9.22c-3.38,2.94-9.07,4.31-17.41-4.75Z"/><path class="cls-6" d="M87.61,53.64a4.13,4.13,0,1,1-3.34-4.84A4.15,4.15,0,0,1,87.61,53.64Z"/><path class="cls-6" d="M78,51.06s6.77-9.17,12.43-3.46C90.41,47.6,84.88,39.79,78,51.06Z"/><path class="cls-4" d="M31.17,41.56S14.53,30.48,15,50.28a12.59,12.59,0,0,0,4.13,9.22c3.38,2.94,9.07,4.31,17.4-4.74Z"/><path class="cls-6" d="M19.47,50.06A4.35,4.35,0,1,0,23,45,4.38,4.38,0,0,0,19.47,50.06Z"/><path class="cls-6" d="M31,50.38s-6.77-9.16-12.44-3.45C18.55,46.93,24.08,39.11,31,50.38Z"/><path class="cls-9" d="M65.47,47.59a6,6,0,0,0,6,6.12,6,6,0,1,0-6-6.12"/><path class="cls-9" d="M31.71,47.59a6.19,6.19,0,1,0,6.36-5.81,6.12,6.12,0,0,0-6.36,5.81"/><path class="cls-10" d="M73.49,94.54C66.84,102,55,105.45,45.75,100.7c-3-1.57-6.31-6-8.08-8.59A11.11,11.11,0,0,0,34,88.66h0s-.13,24.63,0,34.9c.18,11.29,9,10.7,21.09,11.34s23.31-2.4,21.09-11.66C75.21,119.17,73.75,105.08,73.49,94.54Z"/><path class="cls-11" d="M53,45.77a7.08,7.08,0,0,0,5.53-.2l.08,0c2.73-1.33,5.27,2.62,1.87,5s-8.55,2-10.83-.57C47.6,47.65,49.46,44.45,53,45.77Z"/><g class="cls-12"><path class="cls-13" d="M60.44,50.6s.32-2.93-4.77-.62c0,0-4.22-2.31-5.42.64C50.25,50.62,54.36,54.33,60.44,50.6Z"/></g><g class="cls-14"><path class="cls-15" d="M61.64,45.09S63.1,47,59.56,47.64a59.16,59.16,0,0,1-8.44.35c-3.41-.52-2.29-2.52-2.29-2.52S60.38,43.68,61.64,45.09Z"/></g><circle class="cls-1" cx="55.89" cy="55.89" r="55.89"/><path class="cls-16" d="M28.39,40.05A28.61,28.61,0,0,0,40.33,26.31s3.42,7.08,20.59-.42c0,0,7.16,7.06,9,2.94,0,0,6.79,16,11.53,13.42s-2.51-17.86-2.51-17.86,2.54,1.75,1.29-2.13S60.11,14,60.11,14,65.38,10.22,63,9.22s-5.65,3.09-5.65,3.09-1.75-2.25-3.25-2.67-4.66.67.09,4.25c0,0-12-1.33-19.92,5.75,0,0-2.25,1.83,1.5,1.75,0,0-10.32,6.73-12,17.2A14.48,14.48,0,0,1,28.39,40.05Z"/><path class="cls-16" d="M52.15,56.39a9.05,9.05,0,0,0,6.43,0,6.74,6.74,0,0,1,.69,4.37l-.75-1.37s.21,3.44-2.74,3.94V61.39A5.75,5.75,0,0,1,53,64.89a21.9,21.9,0,0,1-.56-5.5L51.65,61A4.44,4.44,0,0,1,52.15,56.39Z"/><path class="cls-17" d="M54.17,13.89A32.11,32.11,0,0,0,42.28,15.2c-1.05.87-2.21,2.18-.53,3.15.9.52,2.47.13,3.37-.11a.5.5,0,0,1,.38.91c-.79.51-2.16,1.41-2.49,2.36-.74,2.09,1.78,2.64,3.45,2.3,2.61-.54,4.89-2.34,6.94-3.94.3-.24.89-.13.85.35-.15,2.13,2.09,2.64,3.8,2.5,1.88-.15,4.09-1.23,2.18-3.14-.46-.46.23-1.14.71-.71,2.56,2.31,6.35,3.63,9.75,2.49a5.13,5.13,0,0,0,3.38-3.11,116.52,116.52,0,0,0-14-4.24S65.38,10.22,63,9.22s-5.65,3.09-5.65,3.09-1.75-2.25-3.25-2.67S49.42,10.31,54.17,13.89Z"/><path class="cls-17" d="M52,56.64s0,0,0,.06l0,.07c-.39,1.07-.83,2.42-.36,2.94,0,.39.17.44.58.16.15-.24.3-.49.44-.75a7.93,7.93,0,0,1,.69-1,.5.5,0,0,1,.84.22c.07.35.1,1.87.42,2.06s.92-1.3,1.16-1.68a.51.51,0,0,1,.92.12c.34,1.33.87.31,1.29-.44a9.79,9.79,0,0,0,.79-1.87l-.07-.12a9.05,9.05,0,0,1-6.43,0C52.08,56.47,52,56.56,52,56.64Z"/><rect class="cls-18" x="49.61" y="88.66" width="3.39" height="3.39"/><rect class="cls-18" x="46.22" y="92.05" width="3.39" height="3.39"/><rect class="cls-18" x="49.61" y="92.05" width="3.39" height="3.39"/><rect class="cls-18" x="53" y="92.05" width="3.39" height="3.39"/><rect class="cls-18" x="46.22" y="95.44" width="3.39" height="3.39"/><rect class="cls-18" x="42.83" y="95.44" width="3.39" height="3.39"/><rect class="cls-18" x="49.61" y="95.44" width="3.39" height="3.39"/><rect class="cls-18" x="53" y="95.44" width="3.39" height="3.39"/><rect class="cls-18" x="49.61" y="98.83" width="3.39" height="3.39"/><rect class="cls-18" x="49.61" y="102.22" width="6.78" height="3.39"/><rect class="cls-18" x="46.22" y="98.83" width="3.39" height="3.39"/><rect class="cls-18" x="53" y="98.83" width="3.39" height="3.39"/><rect class="cls-18" x="53" y="105.61" width="3.39" height="3.39"/><rect class="cls-18" x="56.39" y="88.66" width="3.39" height="3.39" transform="translate(116.17 180.7) rotate(180)"/><rect class="cls-18" x="59.78" y="92.05" width="3.39" height="3.39" transform="translate(122.95 187.48) rotate(180)"/><rect class="cls-18" x="56.39" y="92.05" width="3.39" height="3.39" transform="translate(116.17 187.48) rotate(180)"/><rect class="cls-18" x="53" y="92.05" width="3.39" height="3.39" transform="translate(109.39 187.48) rotate(180)"/><rect class="cls-18" x="59.78" y="95.44" width="3.39" height="3.39" transform="translate(122.95 194.26) rotate(180)"/><rect class="cls-18" x="63.17" y="95.44" width="3.39" height="3.39" transform="translate(129.73 194.26) rotate(180)"/><rect class="cls-18" x="56.39" y="95.44" width="3.39" height="3.39" transform="translate(116.17 194.26) rotate(180)"/><rect class="cls-18" x="53" y="95.44" width="3.39" height="3.39" transform="translate(109.39 194.26) rotate(180)"/><rect class="cls-18" x="56.39" y="98.83" width="3.39" height="3.39" transform="translate(116.17 201.05) rotate(180)"/><rect class="cls-18" x="53" y="102.22" width="6.78" height="3.39" transform="translate(112.78 207.83) rotate(180)"/><rect class="cls-18" x="59.78" y="98.83" width="3.39" height="3.39" transform="translate(122.95 201.05) rotate(180)"/><rect class="cls-18" x="53" y="98.83" width="3.39" height="3.39" transform="translate(109.39 201.05) rotate(180)"/><rect class="cls-18" x="53" y="105.61" width="3.39" height="3.39" transform="translate(109.39 214.61) rotate(180)"/></g></g></g></svg>