<svg xmlns="http://www.w3.org/2000/svg" xmlns:xlink="http://www.w3.org/1999/xlink" viewBox="0 0 112.3 144.26"><defs><style>.cls-1{fill:none;}.cls-2{clip-path:url(#clip-path);}.cls-3{fill:#54acd2;}.cls-4{fill:#f27404;}.cls-5{fill:#deaf76;}.cls-6{fill:#a34373;}.cls-7{fill:#ca9561;}.cls-8{fill:#d0a16f;}.cls-9{fill:#181818;}.cls-10{fill:#d68a64;}.cls-11{fill:#8c3f63;}.cls-12{fill:#c95d05;}.cls-13{fill:#2c2c2b;}.cls-14{clip-path:url(#clip-path-2);}.cls-15{fill:#d04642;}.cls-16{clip-path:url(#clip-path-3);}.cls-17{fill:#fff;}.cls-18{fill:#fffcdb;}.cls-19{fill:#ffe41d;}</style><clipPath id="clip-path"><circle class="cls-1" cx="55.89" cy="56.46" r="55.89"/></clipPath><clipPath id="clip-path-2"><path class="cls-1" d="M54,47.07a6.31,6.31,0,0,0,5-.18l.08,0c2.46-1.2,4.75,2.36,1.69,4.47s-7.71,1.82-9.77-.52C49.2,48.77,50.88,45.89,54,47.07Z"/></clipPath><clipPath id="clip-path-3"><path class="cls-1" d="M54.08,47a6.34,6.34,0,0,0,5-.18l.07,0c2.46-1.2,4.75,2.35,1.69,4.47s-7.7,1.82-9.76-.52C49.26,48.71,50.94,45.83,54.08,47Z"/></clipPath></defs><title>Asset 12</title><g id="Layer_2" data-name="Layer 2"><g id="OBJECTS"><g class="cls-2"><circle class="cls-3" cx="55.89" cy="56.46" r="55.89"/><path class="cls-4" d="M57.17,21.24h-.26s-38.26-7.8-29.5,53.3a20.91,20.91,0,0,0,7.87,13.69c4.72,3.6,11.89,5.9,21.76.88,9.87,5,17,2.72,21.76-.88a20.9,20.9,0,0,0,7.86-13.69C95.42,13.44,57.17,21.24,57.17,21.24Z"/><path class="cls-5" d="M65.63,75.82s9.46-1.5,11.25,7.75,6.54,59.27,6.54,59.27L80,144.26l-9.16-51.1S71.11,79.3,65.63,75.82Z"/><path class="cls-6" d="M45.59,75.23c4.8-.75,11.35-1.73,19.5.06,3.9.85,6.59,5.15,6.54,9.14-.12,8.85,1.35,23.84,2.28,27.76,1.86,7.77-7.5,10.32-17.69,9.78s-17.54,0-17.69-9.51c-.14-8.62,0-11.54,0-29.28C38.48,78.7,41.16,75.93,45.59,75.23Z"/><path class="cls-6" d="M70.87,93.16l.4,2.26h7.24c-.64-5.38-1.21-9.71-1.63-11.85-1.79-9.25-11.25-7.75-11.25-7.75C71.11,79.3,70.87,93.16,70.87,93.16Z"/><path class="cls-5" d="M47.37,75.82s-9.46-1.5-11.25,7.75-6.54,59.27-6.54,59.27L33,144.26l9.17-51.1S41.89,79.3,47.37,75.82Z"/><path class="cls-6" d="M42.13,93.16l-.4,2.26H34.49c.64-5.38,1.21-9.71,1.63-11.85,1.79-9.25,11.25-7.75,11.25-7.75C41.89,79.3,42.13,93.16,42.13,93.16Z"/><path class="cls-5" d="M55.89,79.59h0a4.69,4.69,0,0,0,4.7-4.7V68.27a1.88,1.88,0,0,0-1.89-1.89H53.08a1.89,1.89,0,0,0-1.9,1.89v6.62A4.7,4.7,0,0,0,55.89,79.59Z"/><path class="cls-7" d="M51.19,74.27V69.53H60.6v5A20.23,20.23,0,0,1,51.19,74.27Z"/><path class="cls-5" d="M78.25,41.31S80.41,72.39,56,72.25s-22.1-32.07-22.1-32.07-.13-14,24.31-14.57a20.11,20.11,0,0,1,17.12,8.56A18.4,18.4,0,0,1,78.25,41.31Z"/><path class="cls-8" d="M69.53,64.85c5.19-4.13,7.7-10.59,7.82-17A59.19,59.19,0,0,0,75.88,35.4a14.49,14.49,0,0,1,2.39,5.91S80.42,72.39,56,72.25c-5.91,0-10.26-1.93-13.45-4.77C51.15,71.2,62.4,70.51,69.53,64.85Z"/><path class="cls-9" d="M62.84,43.15c0,1.53-.4,2.79-1,2.81s-1.05-1.2-1.08-2.73.39-2.8,1-2.82,1,1.21,1.08,2.74"/><path class="cls-9" d="M51.54,43.15c0,1.53-.39,2.79-1,2.81s-1-1.2-1.08-2.73.4-2.8,1-2.82,1,1.21,1.08,2.74"/><path class="cls-5" d="M77.63,44.66s14-9.29,13.54,7.32a10.59,10.59,0,0,1-3.46,7.73c-2.84,2.47-7.61,3.62-14.61-4Z"/><path class="cls-7" d="M85.08,51.36a3.65,3.65,0,1,1-3-4.27A3.67,3.67,0,0,1,85.08,51.36Z"/><path class="cls-7" d="M75.42,51.64S81.1,44,85.85,48.74C85.85,48.74,81.21,42.18,75.42,51.64Z"/><path class="cls-5" d="M36.15,43.67S22.2,34.37,22.61,51a10.59,10.59,0,0,0,3.46,7.73c2.84,2.46,7.61,3.62,14.61-4Z"/><path class="cls-7" d="M26.34,50.8a3.65,3.65,0,1,0,2.95-4.27A3.67,3.67,0,0,0,26.34,50.8Z"/><path class="cls-7" d="M36,51.07s-5.68-7.69-10.43-2.9C25.57,48.17,30.21,41.61,36,51.07Z"/><path class="cls-10" d="M64.93,48.72a5.05,5.05,0,0,0,5,5.14A5.12,5.12,0,0,0,75.29,49a5.19,5.19,0,0,0-10.36-.28"/><path class="cls-10" d="M36.61,48.72a5.19,5.19,0,1,0,5.33-4.86,5.07,5.07,0,0,0-5.33,4.86"/><path class="cls-11" d="M71.66,88.27c-5.59,6.26-15.56,9.15-23.27,5.16-2.56-1.31-5.3-5-6.78-7.2a9.48,9.48,0,0,0-3.11-2.9h0s-.11,20.67,0,29.28c.15,9.48,7.5,9,17.69,9.52s19.55-2,17.69-9.79C73.1,108.93,71.88,97.11,71.66,88.27Z"/><path class="cls-4" d="M77.63,44.66s-3.76.62-3.51-6.72c0,0-16.85.93-12.3-7.43,0,0-23.53,18.63-19.28,4.89,0,0-5.43,9.5-8.39,7.16s-8.36-22.84,23-21.32S82.06,41.26,77.63,44.66Z"/><path class="cls-12" d="M79.23,41.09c-3.51-1.43-3-5.34-3.34-8.44-3.54,1.49-7,3.58-10.71,1.27-2.78-1.71-2.35-4.67-1.87-7.42-3.59,3.82-7.42,7.7-12.45,9.5-1.68.59-4,1.06-5.47-.28s-1-3.23-1.11-4.93c-2,2.63-3.68,5.53-6,7.94a9.35,9.35,0,0,1-4.84,3,3.53,3.53,0,0,0,.72.87c3,2.34,8.39-7.16,8.39-7.16-4.25,13.74,19.28-4.89,19.28-4.89-4.55,8.36,12.3,7.43,12.3,7.43-.25,7.34,3.51,6.72,3.51,6.72a9.47,9.47,0,0,0,2.46-3.32A4.44,4.44,0,0,1,79.23,41.09Z"/><path class="cls-13" d="M54,47.07a6.31,6.31,0,0,0,5-.18l.08,0c2.46-1.2,4.75,2.36,1.69,4.47s-7.71,1.82-9.77-.52C49.2,48.77,50.88,45.89,54,47.07Z"/><g class="cls-14"><path class="cls-15" d="M60.77,51.42s.3-2.63-4.29-.55c0,0-3.8-2.08-4.89.57C51.59,51.44,55.29,54.79,60.77,51.42Z"/></g><g class="cls-16"><path class="cls-17" d="M61.86,46.46s1.31,1.74-1.88,2.3a53.26,53.26,0,0,1-7.6.31c-3.07-.46-2.07-2.26-2.07-2.26S60.72,45.2,61.86,46.46Z"/></g><circle class="cls-1" cx="56.41" cy="55.89" r="55.89"/><path class="cls-18" d="M36.68,37.66c0,2.21-.67,4-1.53,4s-1.56-1.78-1.57-4,.66-4,1.52-4S36.66,35.45,36.68,37.66Z"/><path class="cls-18" d="M39.44,42c-2.12.64-4,.49-4.29-.33s1.27-2,3.39-2.63,4-.5,4.28.32S41.55,41.36,39.44,42Z"/><path class="cls-18" d="M36.05,45.88c-1.21-1.86-1.61-3.74-.9-4.21s2.28.66,3.49,2.51,1.61,3.73.9,4.2S37.26,47.73,36.05,45.88Z"/><path class="cls-18" d="M31.37,43.72c1.44-1.69,3.13-2.6,3.78-2s0,2.37-1.42,4.06-3.12,2.6-3.77,2S29.94,45.4,31.37,43.72Z"/><path class="cls-18" d="M32.13,38.63c2,.9,3.37,2.26,3,3s-2.27.69-4.29-.21-3.37-2.27-3-3.05S30.11,37.72,32.13,38.63Z"/><path class="cls-19" d="M34.08,41.54a1.19,1.19,0,1,0,1.18-1.18A1.18,1.18,0,0,0,34.08,41.54Z"/><path class="cls-18" d="M40.06,34.53c0,.9-.27,1.63-.62,1.63s-.63-.72-.64-1.62.27-1.62.62-1.62S40.05,33.64,40.06,34.53Z"/><path class="cls-18" d="M41.18,36.3c-.86.25-1.64.2-1.74-.14s.52-.81,1.38-1.07,1.63-.2,1.73.14S42,36,41.18,36.3Z"/><path class="cls-18" d="M39.8,37.87c-.49-.75-.65-1.52-.36-1.71s.93.27,1.42,1,.65,1.51.36,1.7S40.29,38.62,39.8,37.87Z"/><path class="cls-18" d="M37.91,37c.58-.68,1.27-1.05,1.53-.83s0,1-.57,1.65-1.27,1-1.54.82S37.33,37.67,37.91,37Z"/><path class="cls-18" d="M38.21,34.93c.82.36,1.37.92,1.23,1.23s-.92.28-1.74-.09-1.37-.91-1.22-1.23S37.4,34.56,38.21,34.93Z"/><path class="cls-19" d="M39,36.11a.49.49,0,1,0,.49-.48A.48.48,0,0,0,39,36.11Z"/><path class="cls-18" d="M32.05,34.69c0,.9-.27,1.63-.62,1.63s-.63-.72-.64-1.62.27-1.63.62-1.63S32,33.79,32.05,34.69Z"/><path class="cls-18" d="M33.17,36.45c-.86.26-1.64.2-1.74-.13s.51-.81,1.37-1.07,1.64-.2,1.74.13S34,36.19,33.17,36.45Z"/><path class="cls-18" d="M31.79,38c-.49-.75-.65-1.51-.36-1.7s.92.26,1.41,1,.66,1.51.37,1.7S32.28,38.77,31.79,38Z"/><path class="cls-18" d="M29.9,37.15c.58-.69,1.27-1.06,1.53-.83s0,1-.58,1.64-1.26,1.06-1.53.83S29.32,37.83,29.9,37.15Z"/><path class="cls-18" d="M30.2,35.08c.82.37,1.37.92,1.23,1.24s-.92.28-1.74-.09-1.37-.92-1.23-1.23S29.38,34.72,30.2,35.08Z"/><path class="cls-19" d="M31,36.27a.49.49,0,1,0,.48-.49A.49.49,0,0,0,31,36.27Z"/></g></g></g></svg>