<svg xmlns="http://www.w3.org/2000/svg" xmlns:xlink="http://www.w3.org/1999/xlink" viewBox="0 0 111.78 148.44"><defs><style>.cls-1{fill:none;}.cls-2{clip-path:url(#clip-path);}.cls-3{fill:#58d9cd;}.cls-4{fill:#c1915d;}.cls-5{fill:#271910;}.cls-6{fill:#0f0906;}.cls-7{fill:#f2395b;}.cls-8{fill:#aa7443;}.cls-9{fill:#b7824e;}.cls-10{fill:#181818;}.cls-11{fill:#c16a44;}.cls-12{fill:#dd224b;}.cls-13{fill:#2c2c2b;}.cls-14{clip-path:url(#clip-path-2);}.cls-15{fill:#d04642;}.cls-16{clip-path:url(#clip-path-3);}.cls-17{fill:#fff;}.cls-18{fill:#f2cb03;}</style><clipPath id="clip-path"><circle class="cls-1" cx="55.89" cy="55.89" r="55.89" transform="translate(-10.14 99.34) rotate(-78.35)"/></clipPath><clipPath id="clip-path-2"><path class="cls-1" d="M53.72,46.94a6.13,6.13,0,0,0,4.79-.17l.07,0C61,45.58,63.15,49,60.21,51s-7.41,1.75-9.39-.5C49.08,48.57,50.7,45.8,53.72,46.94Z"/></clipPath><clipPath id="clip-path-3"><path class="cls-1" d="M53.78,46.88a6.1,6.1,0,0,0,4.78-.17l.08,0C61,45.52,63.2,48.94,60.26,51s-7.41,1.75-9.39-.5C49.14,48.51,50.75,45.74,53.78,46.88Z"/></clipPath></defs><title>Asset 5</title><g id="Layer_2" data-name="Layer 2"><g id="OBJECTS"><g class="cls-2"><circle class="cls-3" cx="55.89" cy="55.89" r="55.89" transform="translate(-10.14 99.34) rotate(-78.35)"/><path class="cls-4" d="M63.54,76.53S73.47,75,75.36,84.67,82.23,147,82.23,147l-3.56,1.49L69,94.75S69.29,80.18,63.54,76.53Z"/><path class="cls-4" d="M46.42,76.53S36.49,75,34.6,84.67,27.73,147,27.73,147l3.56,1.49,9.63-53.69S40.67,80.18,46.42,76.53Z"/><path class="cls-5" d="M96.94,41.24a10.5,10.5,0,0,0-6.85-11.93A10.47,10.47,0,0,0,77,17.55,10.48,10.48,0,0,0,62.52,13a10.49,10.49,0,0,0-14.27.38,10.48,10.48,0,0,0-15.14,5.73,10.5,10.5,0,0,0-10.94,8.45,10.35,10.35,0,0,0,.14,4.61,10.49,10.49,0,0,0-1.87,4.22,10.36,10.36,0,0,0,.38,5.46,10.49,10.49,0,0,0,.4,16.59,10.48,10.48,0,0,0,14.94,11,10.37,10.37,0,0,0,7.9,2.08,10.45,10.45,0,0,0,10.57,2.25,10.47,10.47,0,0,0,18.13-.34,10.49,10.49,0,0,0,7.19-8c0-.18,0-.35.08-.53a4.77,4.77,0,0,0,.51.13A10.49,10.49,0,0,0,91.15,48.68,10.48,10.48,0,0,0,96.94,41.24ZM75.29,47.16A21.45,21.45,0,0,0,73.42,36a10.34,10.34,0,0,0,2.86,1.53,10.43,10.43,0,0,0,1.77,7.68A10.73,10.73,0,0,0,75.29,47.16Z"/><path class="cls-6" d="M94.27,32c0,.41,0,.8-.08,1.18A9.15,9.15,0,0,1,90.68,40a4.12,4.12,0,0,1-3.63.93c2,3.94,3,9.58.25,12.92a5.1,5.1,0,0,1-7.5.22c.39,4-.55,8.64-3.64,11.09-1.85,1.46-4.5,1.67-5.67.09-.8,3.16-2.54,6.38-6,6.78a7.41,7.41,0,0,1-8.08-6.21C53.12,69.91,45,68.81,45.31,63c-3,.93-10.85,3-11.84-.34-4.8,3.92-15.43-6.91-8.7-11.38-5.47-3.56-3.35-11.21,1.69-14.35a20.26,20.26,0,0,1-4.81-3.76,10.48,10.48,0,0,0-.83,8.68,10.49,10.49,0,0,0,.4,16.59,10.48,10.48,0,0,0,14.94,11,10.37,10.37,0,0,0,7.9,2.08,10.45,10.45,0,0,0,10.57,2.25,10.47,10.47,0,0,0,18.13-.34,10.49,10.49,0,0,0,7.19-8c0-.17,0-.34.08-.52a4.77,4.77,0,0,0,.51.13A10.49,10.49,0,0,0,91.15,48.68,10.46,10.46,0,0,0,94.27,32Z"/><path class="cls-7" d="M44.62,75.76c5.05-.79,11.93-1.82,20.49.06,4.1.89,6.93,5.42,6.87,9.61-.12,9.29,1.42,25,2.4,29.16,2,8.17-7.88,10.85-18.59,10.28s-18.43,0-18.59-10c-.14-9.05,0-12.11,0-30.76C37.15,79.4,40,76.49,44.62,75.76Z"/><path class="cls-4" d="M55.44,80.34h0a5,5,0,0,0,5-4.94v-7a2,2,0,0,0-2-2H52.49a2,2,0,0,0-2,2v7A4.94,4.94,0,0,0,55.44,80.34Z"/><path class="cls-8" d="M50.5,74.75v-5h9.89V75A21.2,21.2,0,0,1,50.5,74.75Z"/><path class="cls-4" d="M78.94,40.12s2.27,32.65-23.4,32.5S32.32,38.93,32.32,38.93s-.14-14.7,25.54-15.31a21.12,21.12,0,0,1,18,9A19.31,19.31,0,0,1,78.94,40.12Z"/><path class="cls-9" d="M39,38.53c1.35-.82,2.36-2.17,3.82-2.79,2-.85,4.4-.73,6.51-1.35a23,23,0,0,0,6.25-2.95.52.52,0,0,1,.61.08c1.59,1.31,3.68-.09,5-.95a.51.51,0,0,1,.6.07c1.39,1.14,2.75,1.22,4.42,1.51a2.38,2.38,0,0,1,.91.15c1.51.79,1.79,2.84,3.26,3.82a8.91,8.91,0,0,0,7.9,1.13,19.81,19.81,0,0,0-2.4-4.83,21.12,21.12,0,0,0-18-9C32.25,24,32.39,38.74,32.39,38.74s0,.25,0,.67A7.44,7.44,0,0,0,39,38.53Z"/><path class="cls-9" d="M69.78,64.85C75.23,60.51,77.87,53.72,78,47a62.46,62.46,0,0,0-1.55-13.05A15.18,15.18,0,0,1,79,40.12s2.26,32.65-23.41,32.5c-6.21,0-10.78-2-14.13-5C50.47,71.52,62.29,70.8,69.78,64.85Z"/><path class="cls-10" d="M62.74,42.05c0,1.61-.41,2.93-1,3s-1.11-1.27-1.14-2.88.42-2.94,1-3,1.1,1.27,1.13,2.88"/><path class="cls-10" d="M50.88,42.05c0,1.61-.42,2.93-1,3s-1.1-1.27-1.14-2.88.42-2.94,1-3,1.1,1.27,1.14,2.88"/><path class="cls-4" d="M78.62,40.75S93.28,31,92.84,48.45a11.08,11.08,0,0,1-3.63,8.12c-3,2.59-8,3.8-15.35-4.18Z"/><path class="cls-8" d="M86.45,47.79a3.83,3.83,0,1,1-3.1-4.48A3.86,3.86,0,0,1,86.45,47.79Z"/><path class="cls-8" d="M76.3,48.08s6-8.08,11-3C87.26,45,82.39,38.15,76.3,48.08Z"/><path class="cls-4" d="M34.71,42.59S20,32.83,20.48,50.28a11.14,11.14,0,0,0,3.63,8.13c3,2.59,8,3.8,15.35-4.19Z"/><path class="cls-8" d="M24.4,50.08a3.83,3.83,0,1,0,3.1-4.48A3.85,3.85,0,0,0,24.4,50.08Z"/><path class="cls-8" d="M34.54,50.37s-6-8.08-11-3C23.58,47.32,28.46,40.43,34.54,50.37Z"/><path class="cls-11" d="M64.94,47.9a5.45,5.45,0,1,0,5.6-5.11,5.33,5.33,0,0,0-5.6,5.11"/><path class="cls-11" d="M35.19,47.9a5.45,5.45,0,1,0,5.6-5.11,5.33,5.33,0,0,0-5.6,5.11"/><path class="cls-12" d="M72,89.3c-5.86,6.57-16.35,9.61-24.45,5.42-2.68-1.38-5.56-5.25-7.12-7.57a9.91,9.91,0,0,0-3.27-3h0s-.11,21.71,0,30.76c.16,10,7.89,9.44,18.59,10s20.55-2.11,18.59-10.28C73.53,111,72.24,98.58,72,89.3Z"/><path class="cls-13" d="M53.72,46.94a6.13,6.13,0,0,0,4.79-.17l.07,0C61,45.58,63.15,49,60.21,51s-7.41,1.75-9.39-.5C49.08,48.57,50.7,45.8,53.72,46.94Z"/><g class="cls-14"><path class="cls-15" d="M60.21,51.12s.28-2.53-4.13-.53c0,0-3.66-2-4.7.55C51.38,51.14,54.94,54.36,60.21,51.12Z"/></g><g class="cls-16"><path class="cls-17" d="M61.25,46.35s1.27,1.67-1.8,2.21a50.79,50.79,0,0,1-7.31.3c-3-.45-2-2.18-2-2.18S60.16,45.13,61.25,46.35Z"/></g><path class="cls-18" d="M80.87,54.19a2.49,2.49,0,1,0,2.49-2.49A2.48,2.48,0,0,0,80.87,54.19Z"/><circle class="cls-18" cx="29.06" cy="56.59" r="2.48"/><path class="cls-5" d="M32,41.15s5.73,1,9.73-11c0,0,1,8,16-3,0,0,1,5,5,1,0,0,4,6,5,2,0,0,6.19,16.13,10.1,12.57s4.9-5.57,2.9-7.57-4-16-24-14S23.27,31.18,32,41.15Z"/><polygon class="cls-18" points="29.23 55.89 31.8 61.09 37.54 61.92 33.38 65.97 34.36 71.69 29.23 68.99 24.1 71.69 25.08 65.97 20.93 61.92 26.66 61.09 29.23 55.89"/><polygon class="cls-18" points="83.23 55.89 85.8 61.09 91.54 61.92 87.38 65.97 88.36 71.69 83.23 68.99 78.1 71.69 79.08 65.97 74.92 61.92 80.66 61.09 83.23 55.89"/><path class="cls-7" d="M54,47s-.24-.83,1.76-.83,2,.9,2,.9a6.16,6.16,0,0,1-2,.26A16.14,16.14,0,0,1,54,47Z"/><path class="cls-7" d="M54.4,52.31s.48.73,2.06.69,1.85-1,1.85-1A8.58,8.58,0,0,1,54.4,52.31Z"/><path class="cls-6" d="M74.3,37.49a8.32,8.32,0,0,1-1.58-3.44c-.31-1.28-.14-2.91-.59-4.11-.22-.58-.07-.38-.49-.75-.25-.22-1.1-.41-1.41-.64a5.22,5.22,0,0,1-1.65-2.49c-2.25,1-4.08.84-5.52-1.27-1.73,1-4.89,2.87-6.13,1C53.34,28.41,45.52,32.58,42,28.7c-2.86,4-6.41,9.24-11.3,10.72A14.47,14.47,0,0,0,32,41.15s5.73,1,9.73-11c0,0,1,8,16-3,0,0,1,5,5,1,0,0,4,6,5,2,0,0,6.19,16.13,10.1,12.57,2.84-2.6,4.14-4.37,3.86-5.91C79.67,39.11,76.76,40.44,74.3,37.49Z"/></g></g></g></svg>