<?xml version="1.0" encoding="utf-8"?>
<!-- Generator: Adobe Illustrator 23.1.0, SVG Export Plug-In . SVG Version: 6.00 Build 0)  -->
<svg version="1.1" id="Layer_1" xmlns="http://www.w3.org/2000/svg" xmlns:xlink="http://www.w3.org/1999/xlink" x="0px" y="0px"
	 viewBox="0 0 111.8 111.8" style="enable-background:new 0 0 111.8 111.8;" xml:space="preserve">
<style type="text/css">
	.st0{clip-path:url(#SVGID_2_);}
	.st1{fill:#F2395B;}
	.st2{fill:#F2CB03;}
	.st3{fill:#E5BA03;}
	.st4{fill:#DEAF76;}
	.st5{fill:#FF7FC9;}
	.st6{fill:#CA9561;}
	.st7{fill:#D0A16F;}
	.st8{fill:#D68A64;}
	.st9{fill:#F255B6;}
	.st10{fill:#181818;}
	.st11{clip-path:url(#SVGID_4_);}
	.st12{fill:#D04642;}
	.st13{fill:#FF6B6B;}
	.st14{fill:#CE4545;}
	.st15{fill:#FFF8F8;}
</style>
<title>Asset 7</title>
<g>
	<g id="OBJECTS">
		<g>
			<defs>
				<circle id="SVGID_1_" cx="55.9" cy="55.9" r="55.9"/>
			</defs>
			<clipPath id="SVGID_2_">
				<use xlink:href="#SVGID_1_"  style="overflow:visible;"/>
			</clipPath>
			<g class="st0">
				<circle class="st1" cx="55.9" cy="55.9" r="55.9"/>
				<path class="st2" d="M55.6,14.6C55,14.5,9,8.1,26.2,72.5l2.3-4.5c0,0-1,15.9,7.6,19.6c0,0-2.1-9.6,1-9.8
					c1.7,8.9,8.6,15.9,17.5,17.6h1.9c8.9-1.8,15.8-8.7,17.5-17.7c3,0.2,0.9,9.8,0.9,9.8c8.6-3.6,7.6-19.5,7.6-19.5l2.3,4.5
					C102.2,8.1,56.1,14.5,55.6,14.6z"/>
				<path class="st3" d="M87.3,62.1c-0.7,0.6-1.6,0.9-2.5,0.9c-1.3-0.1-2.2-1.2-3.2-2c-0.7,3.6,0.1,8.2-2.5,11.1
					c-2.4,2.8-4.7,0.1-6.1-2.2c-2.5,3.2-4.8,6.6-8.4,8.5s-8,1.8-12,1.4c-7.2-0.8-11.1-5-14.4-11.1c-1.4,1.4-3.1,3.7-5.1,3.5
					s-2.7-2.3-3.2-3.9c-0.4-1.4-0.6-2.8-0.8-4.2c-0.2-1.2-0.2-3.3-1.6-2.7c-0.7,0.3-1.4,1.3-2.1,1.8c-0.3,0.2-0.7,0.3-1,0.5
					c0.5,2.8,1.2,5.7,2.1,8.8l2.3-4.5c0,0-1,15.9,7.6,19.6c0,0-2.1-9.6,1-9.8c1.7,8.9,8.6,15.9,17.5,17.7h1.9
					c8.9-1.7,15.8-8.7,17.5-17.7c3,0.2,1,9.8,1,9.8c8.5-3.6,7.6-19.6,7.6-19.6l2.3,4.5C85.9,68.8,86.7,65.3,87.3,62.1z"/>
				<path class="st4" d="M67.4,77.6c0,0,11.2-1.8,13.3,9.1s7.7,69.9,7.7,69.9l-4,1.7L73.6,98C73.6,98,73.8,81.7,67.4,77.6z"/>
				<path class="st4" d="M42.3,77.6c0,0-11.2-1.8-13.3,9.1s-7.7,69.9-7.7,69.9l4,1.7L36.1,98C36.1,98,35.8,81.7,42.3,77.6z"/>
				<path class="st5" d="M42.6,76.9c5.7-0.9,13.4-2,23,0.1c4.6,1,7.8,6.1,7.7,10.8c-0.2,10.4,1.6,28.1,2.7,32.7
					c2.2,9.2-8.8,12.2-20.9,11.5s-20.7,0-20.9-11.2c-0.2-10.2,0-13.6,0-34.5C34.2,81,37.3,77.7,42.6,76.9z"/>
				<path class="st4" d="M54.7,82L54.7,82c3.1,0,5.5-2.5,5.5-5.6v-7.8c0-1.2-1-2.2-2.2-2.2c0,0,0,0,0,0h-6.6c-1.2,0-2.2,1-2.2,2.2
					c0,0,0,0,0,0v7.8C49.2,79.5,51.7,82,54.7,82z"/>
				<path class="st6" d="M49.2,75.7v-5.6h11.1v5.9C56.6,76.8,52.8,76.7,49.2,75.7z"/>
				<path class="st4" d="M81.1,36.9c0,0,2.6,36.7-26.3,36.5S28.8,35.5,28.8,35.5S28.6,19,57.4,18.3c8-0.3,15.6,3.5,20.2,10.1
					C79.4,31,80.5,33.8,81.1,36.9z"/>
				<path class="st7" d="M70.8,64.6c6.1-4.9,9.1-12.5,9.2-20.1c-0.1-4.9-0.6-9.8-1.7-14.6c1.5,2.1,2.4,4.5,2.8,7
					c0,0,2.5,36.7-26.3,36.5c-7,0-12.1-2.3-15.9-5.6C49.1,72.1,62.4,71.3,70.8,64.6z"/>
				<path class="st4" d="M80.3,40.8c0,0,16.5-11,16,8.6c0,3.5-1.5,6.8-4.1,9.1c-3.3,2.9-9,4.3-17.2-4.7L80.3,40.8z"/>
				<path class="st6" d="M89.1,48.7c-0.4,2.3-2.7,3.9-5,3.5c-2.3-0.4-3.9-2.7-3.5-5c0.4-2.3,2.6-3.9,5-3.5
					C88,44.1,89.6,46.4,89.1,48.7z"/>
				<path class="st6" d="M77.8,49c0,0,6.7-9.1,12.3-3.4C90.1,45.6,84.6,37.9,77.8,49z"/>
				<path class="st4" d="M31.4,39.6c0,0-16.5-11-16,8.6c0,3.5,1.5,6.8,4.1,9.1c3.3,2.9,9,4.3,17.2-4.7L31.4,39.6z"/>
				<path class="st6" d="M19.9,48.1c0.4,2.3,2.7,3.9,5,3.5s3.9-2.7,3.5-5c-0.4-2.3-2.7-3.9-5-3.5C21,43.5,19.4,45.7,19.9,48.1z"/>
				<path class="st6" d="M31.3,48.4c0,0-6.7-9.1-12.3-3.4C18.9,45,24.4,37.2,31.3,48.4z"/>
				<path class="st8" d="M65.4,45.6c0,3.3,2.6,6,5.9,6.1c0,0,0,0,0,0c3.3,0.1,6.1-2.4,6.3-5.8c0-3.3-2.6-6-5.9-6.1
					C68.4,39.7,65.5,42.3,65.4,45.6C65.4,45.6,65.4,45.6,65.4,45.6"/>
				<path class="st8" d="M32,45.6c0,3.3,2.6,6,5.9,6.1c0,0,0,0,0,0c3.3,0.1,6.1-2.4,6.3-5.8c-0.1-3.4-2.9-6.1-6.3-6
					C34.8,40,32.2,42.5,32,45.6"/>
				<path class="st9" d="M73.3,92.1c-6.6,7.4-18.3,10.8-27.4,6.1c-3-1.6-6.3-5.9-8-8.5c-0.9-1.4-2.2-2.6-3.7-3.4l0,0
					c0,0-0.1,24.4,0,34.5c0.2,11.2,8.9,10.6,20.9,11.2s23.1-2.4,20.9-11.5C75,116.4,73.6,102.5,73.3,92.1z"/>
				<path class="st10" d="M47.4,40.6c0,2.1,0.5,3.8,1.1,3.8s1.1-1.7,1.1-3.8s-0.5-3.8-1.1-3.8S47.4,38.5,47.4,40.6z"/>
				<path class="st10" d="M56.8,41.6c-0.3-0.2-0.4-0.6-0.2-0.9c0,0,0.1-0.1,0.1-0.1c1-1.1,2.3-1.8,3.7-2.1c1.8-0.3,3.7,0.2,5.2,1.2
					c0.3,0.2,0.4,0.6,0.2,0.9c0,0,0,0,0,0l0,0c-0.2,0.3-0.6,0.4-0.9,0.2c-1.2-0.8-2.7-1.2-4.1-1c-1.1,0.2-2.1,0.8-2.9,1.7
					C57.5,41.7,57.2,41.8,56.8,41.6L56.8,41.6z"/>
				<path class="st10" d="M52.1,48.6c0,2.4,1.1,4.3,2.5,4.3S57,51,57,48.6s-1.1-4.3-2.5-4.3S52.1,46.2,52.1,48.6z"/>
				<g>
					<defs>
						<path id="SVGID_3_" d="M52.1,48.6c0,2.4,1.1,4.3,2.5,4.3S57,51,57,48.6s-1.1-4.3-2.5-4.3S52.1,46.2,52.1,48.6z"/>
					</defs>
					<clipPath id="SVGID_4_">
						<use xlink:href="#SVGID_3_"  style="overflow:visible;"/>
					</clipPath>
					<g class="st11">
						<path class="st12" d="M51.8,52.1c0,0-0.3-1.9,3-0.6c0,0,2.6-1.7,3.5,0.2C58.2,51.7,55.8,54.3,51.8,52.1z"/>
					</g>
				</g>
				<path class="st2" d="M81.2,40.3L80,41.7l-3.3-11.8c0,0-25.3-2.8-36.5-0.7L39,26.5l-0.9,3.4l-1.3-0.7l-7.6,9.2
					c0,0-8.4-24.9,27.3-23.8S81.2,40.3,81.2,40.3z"/>
				<path class="st13" d="M52.5,20L52.5,20c-1.3-2.7-4.5-3.9-7.2-2.7c-0.8,0.4-1.5,0.9-2.1,1.7c-1.8-2.4-5.2-2.9-7.6-1.1
					C35,18.4,34.4,19.2,34,20l0,0c-0.5,1-0.6,2.2-0.4,3.4l0,0c0.5,2.5,2.6,6.3,9.7,10.6l0,0c7.1-4.3,9.2-8,9.7-10.6l0,0
					C53.2,22.2,53.1,21,52.5,20z"/>
				<path class="st14" d="M43.6,34.4l-0.3,0.2L43,34.4c-7.4-4.5-9.5-8.4-9.9-10.9c-0.3-1.3-0.1-2.6,0.5-3.8v0c1-2.1,3.1-3.4,5.5-3.4
					c1.6,0,3.2,0.7,4.3,1.9c1.1-1.2,2.7-1.9,4.3-1.9c2.3,0,4.4,1.3,5.4,3.4l0,0c0.6,1.2,0.8,2.5,0.5,3.8C53,26,50.9,29.9,43.6,34.4z
					 M34.3,20.6c-0.3,0.9-0.4,1.8-0.2,2.7c0.4,2.3,2.3,5.8,9.1,10c6.8-4.2,8.7-7.8,9.1-10c0.2-0.9,0.1-1.8-0.2-2.7l0,0L52,20.2
					c-1.1-2.4-4-3.5-6.4-2.4c-0.7,0.3-1.4,0.9-1.9,1.5l-0.4,0.6l-0.4-0.6c-1.6-2.1-4.7-2.6-6.8-1c-0.7,0.5-1.2,1.1-1.5,1.9
					L34.3,20.6L34.3,20.6z"/>
				<path class="st13" d="M74.6,20L74.6,20c-1.3-2.7-4.5-3.9-7.2-2.7c-0.8,0.4-1.5,0.9-2.1,1.7c-1.8-2.4-5.2-2.9-7.6-1.1
					c-0.7,0.5-1.3,1.2-1.7,2.1l0,0c-0.5,1-0.7,2.2-0.4,3.4l0,0c0.5,2.5,2.6,6.3,9.7,10.6l0,0c7.1-4.3,9.2-8,9.7-10.6l0,0
					C75.3,22.2,75.1,21,74.6,20z"/>
				<path class="st14" d="M65.7,34.4l-0.3,0.2l-0.3-0.2c-7.3-4.5-9.5-8.4-9.9-10.9c-0.3-1.3-0.1-2.6,0.5-3.8v0
					c1-2.1,3.1-3.4,5.4-3.4c1.6,0,3.2,0.7,4.3,1.9c1.1-1.2,2.7-1.9,4.3-1.9c2.3,0,4.4,1.3,5.4,3.4l0,0c0.6,1.2,0.7,2.5,0.5,3.8
					C75.1,26,73,29.9,65.7,34.4z M56.4,20.6c-0.3,0.9-0.4,1.8-0.2,2.7c0.4,2.3,2.3,5.8,9.1,10c6.8-4.2,8.7-7.8,9.1-10
					c0.2-0.9,0.1-1.8-0.2-2.7l0,0l-0.2-0.4c-0.8-1.7-2.5-2.8-4.4-2.9c-1.5,0-3,0.7-3.9,1.9l-0.4,0.6l-0.4-0.6
					c-0.9-1.2-2.4-1.9-3.9-1.9c-1.9,0-3.6,1.1-4.4,2.9L56.4,20.6L56.4,20.6z"/>
				<path class="st14" d="M52,21.4h4.2c0.4,0,0.8,0.3,0.8,0.8v0.2c0,0.4-0.3,0.8-0.8,0.8H52c-0.4,0-0.8-0.3-0.8-0.8v-0.2
					C51.2,21.7,51.5,21.4,52,21.4z"/>
				<path class="st14" d="M73.6,18.3H77c0.4,0,0.8,0.3,0.8,0.8v0.2c0,0.4-0.3,0.8-0.8,0.8h-3.4c-0.4,0-0.8-0.3-0.8-0.8v-0.2
					C72.8,18.7,73.2,18.3,73.6,18.3z"/>
				<path class="st14" d="M32,18.3h3.4c0.4,0,0.8,0.3,0.8,0.8v0.2c0,0.4-0.3,0.8-0.8,0.8H32c-0.4,0-0.8-0.3-0.8-0.8v-0.2
					C31.3,18.7,31.6,18.3,32,18.3z"/>
				<path class="st15" d="M39.7,21c0,0.9-0.7,1.6-1.6,1.6c-0.9,0-1.6-0.7-1.6-1.6c0-0.9,0.7-1.6,1.6-1.6c0,0,0,0,0,0
					C39,19.4,39.7,20.1,39.7,21z"/>
				<path class="st15" d="M40,23.9c0,0.4-0.3,0.6-0.7,0.6c-0.4,0-0.6-0.3-0.6-0.6c0-0.4,0.3-0.6,0.6-0.6S40,23.6,40,23.9
					C40,23.9,40,23.9,40,23.9z"/>
				<path class="st15" d="M61.9,21c0,0.9-0.7,1.6-1.6,1.6c-0.9,0-1.6-0.7-1.6-1.6c0-0.9,0.7-1.6,1.6-1.6c0,0,0,0,0,0
					C61.2,19.4,61.9,20.1,61.9,21z"/>
				<path class="st15" d="M62.3,23.9c0,0.4-0.3,0.6-0.7,0.6c-0.4,0-0.6-0.3-0.6-0.6c0-0.4,0.3-0.6,0.6-0.6S62.3,23.6,62.3,23.9
					C62.3,23.9,62.3,23.9,62.3,23.9z"/>
			</g>
		</g>
	</g>
</g>
</svg>
