<?xml version="1.0" encoding="utf-8"?>
<!-- Generator: Adobe Illustrator 23.1.0, SVG Export Plug-In . SVG Version: 6.00 Build 0)  -->
<svg version="1.1" id="Layer_1" xmlns="http://www.w3.org/2000/svg" xmlns:xlink="http://www.w3.org/1999/xlink" x="0px" y="0px"
	 viewBox="0 0 112.3 112.3" style="enable-background:new 0 0 112.3 112.3;" xml:space="preserve">
<style type="text/css">
	.st0{clip-path:url(#SVGID_2_);}
	.st1{fill:#54ACD2;}
	.st2{fill:#F27404;}
	.st3{fill:#DEAF76;}
	.st4{fill:#A34373;}
	.st5{fill:#CA9561;}
	.st6{fill:#D0A16F;}
	.st7{fill:#181818;}
	.st8{fill:#D68A64;}
	.st9{fill:#8C3F63;}
	.st10{fill:#C95D05;}
	.st11{fill:#2C2C2B;}
	.st12{clip-path:url(#SVGID_4_);}
	.st13{fill:#D04642;}
	.st14{clip-path:url(#SVGID_6_);}
	.st15{fill:#FFFFFF;}
	.st16{fill:none;}
	.st17{fill:#FFFCDB;}
	.st18{fill:#FFE41D;}
</style>
<title>Asset 12</title>
<g>
	<g id="OBJECTS">
		<g>
			<defs>
				<circle id="SVGID_1_" cx="55.9" cy="56.5" r="55.9"/>
			</defs>
			<clipPath id="SVGID_2_">
				<use xlink:href="#SVGID_1_"  style="overflow:visible;"/>
			</clipPath>
			<g class="st0">
				<circle class="st1" cx="55.9" cy="56.5" r="55.9"/>
				<path class="st2" d="M57.2,21.2h-0.3c0,0-38.3-7.8-29.5,53.3c0.7,5.4,3.6,10.3,7.9,13.7c4.7,3.6,11.9,5.9,21.8,0.9
					c9.9,5,17,2.7,21.8-0.9c4.3-3.4,7.1-8.3,7.9-13.7C95.4,13.4,57.2,21.2,57.2,21.2z"/>
				<path class="st3" d="M65.6,75.8c0,0,9.5-1.5,11.3,7.8s6.5,59.3,6.5,59.3l-3.4,1.4l-9.2-51.1C70.8,93.2,71.1,79.3,65.6,75.8z"/>
				<path class="st4" d="M45.6,75.2c4.8-0.8,11.4-1.7,19.5,0.1c3.9,0.8,6.6,5.2,6.5,9.1c-0.1,8.8,1.3,23.8,2.3,27.8
					c1.9,7.8-7.5,10.3-17.7,9.8s-17.5,0-17.7-9.5c-0.1-8.6,0-11.5,0-29.3C38.5,78.7,41.2,75.9,45.6,75.2z"/>
				<path class="st4" d="M70.9,93.2l0.4,2.3h7.2c-0.6-5.4-1.2-9.7-1.6-11.8c-1.8-9.3-11.3-7.8-11.3-7.8
					C71.1,79.3,70.9,93.2,70.9,93.2z"/>
				<path class="st3" d="M47.4,75.8c0,0-9.5-1.5-11.3,7.8s-6.5,59.3-6.5,59.3l3.4,1.4l9.2-51.1C42.2,93.2,41.9,79.3,47.4,75.8z"/>
				<path class="st4" d="M42.1,93.2l-0.4,2.3h-7.2c0.6-5.4,1.2-9.7,1.6-11.8c1.8-9.3,11.3-7.8,11.3-7.8
					C41.9,79.3,42.1,93.2,42.1,93.2z"/>
				<path class="st3" d="M55.9,79.6L55.9,79.6c2.6,0,4.7-2.1,4.7-4.7c0,0,0,0,0,0v-6.6c0-1-0.8-1.9-1.9-1.9c0,0,0,0,0,0h-5.6
					c-1,0-1.9,0.8-1.9,1.9c0,0,0,0,0,0v6.6C51.2,77.5,53.3,79.6,55.9,79.6C55.9,79.6,55.9,79.6,55.9,79.6z"/>
				<path class="st5" d="M51.2,74.3v-4.7h9.4v5C57.5,75.2,54.3,75.1,51.2,74.3z"/>
				<path class="st3" d="M78.3,41.3c0,0,2.2,31.1-22.3,30.9S33.9,40.2,33.9,40.2s-0.1-14,24.3-14.6c6.8-0.2,13.2,3,17.1,8.6
					C76.8,36.3,77.8,38.8,78.3,41.3z"/>
				<path class="st6" d="M69.5,64.8c5.2-4.1,7.7-10.6,7.8-17c0-4.2-0.5-8.4-1.5-12.4c1.2,1.8,2,3.8,2.4,5.9c0,0,2.2,31.1-22.3,30.9
					c-5.9,0-10.3-1.9-13.5-4.8C51.2,71.2,62.4,70.5,69.5,64.8z"/>
				<path class="st7" d="M62.8,43.1c0,1.5-0.4,2.8-1,2.8s-1-1.2-1.1-2.7s0.4-2.8,1-2.8S62.8,41.6,62.8,43.1"/>
				<path class="st7" d="M51.5,43.1c0,1.5-0.4,2.8-1,2.8s-1-1.2-1.1-2.7s0.4-2.8,1-2.8S51.5,41.6,51.5,43.1"/>
				<path class="st3" d="M77.6,44.7c0,0,14-9.3,13.5,7.3c0,2.9-1.3,5.7-3.5,7.7c-2.8,2.5-7.6,3.6-14.6-4L77.6,44.7z"/>
				<path class="st5" d="M85.1,51.4c-0.4,2-2.3,3.3-4.3,2.9S77.5,52,77.9,50c0.4-2,2.2-3.3,4.2-2.9C84.1,47.4,85.4,49.3,85.1,51.4
					C85.1,51.3,85.1,51.3,85.1,51.4z"/>
				<path class="st5" d="M75.4,51.6c0,0,5.7-7.6,10.4-2.9C85.8,48.7,81.2,42.2,75.4,51.6z"/>
				<path class="st3" d="M36.2,43.7c0,0-14-9.3-13.5,7.3c0,2.9,1.3,5.7,3.5,7.7c2.8,2.5,7.6,3.6,14.6-4L36.2,43.7z"/>
				<path class="st5" d="M26.3,50.8c0.4,2,2.3,3.3,4.3,2.9c2-0.4,3.3-2.3,2.9-4.3c-0.4-2-2.3-3.3-4.2-2.9
					C27.3,46.9,26,48.8,26.3,50.8z"/>
				<path class="st5" d="M36,51.1c0,0-5.7-7.7-10.4-2.9C25.6,48.2,30.2,41.6,36,51.1z"/>
				<path class="st8" d="M64.9,48.7c0,2.8,2.2,5.1,5,5.1c0,0,0,0,0,0c2.8,0.1,5.2-2,5.4-4.9c-0.1-2.9-2.5-5.1-5.3-5
					C67.3,44,65.1,46.1,64.9,48.7"/>
				<path class="st8" d="M36.6,48.7c-0.2,2.9,2,5.3,4.9,5.5s5.3-2,5.5-4.9c0.2-2.9-2-5.3-4.9-5.5c-0.1,0-0.1,0-0.2,0
					C39.1,43.7,36.8,45.9,36.6,48.7C36.6,48.7,36.6,48.7,36.6,48.7"/>
				<path class="st9" d="M71.7,88.3c-5.6,6.3-15.6,9.2-23.3,5.2c-2.6-1.3-5.3-5-6.8-7.2c-0.8-1.2-1.9-2.2-3.1-2.9l0,0
					c0,0-0.1,20.7,0,29.3c0.2,9.5,7.5,9,17.7,9.5s19.6-2,17.7-9.8C73.1,108.9,71.9,97.1,71.7,88.3z"/>
				<path class="st2" d="M77.6,44.7c0,0-3.8,0.6-3.5-6.7c0,0-16.8,0.9-12.3-7.4c0,0-23.5,18.6-19.3,4.9c0,0-5.4,9.5-8.4,7.2
					s-8.4-22.8,23-21.3S82.1,41.3,77.6,44.7z"/>
				<path class="st10" d="M79.2,41.1c-3.5-1.4-3-5.3-3.3-8.4c-3.5,1.5-7,3.6-10.7,1.3c-2.8-1.7-2.3-4.7-1.9-7.4
					c-3.6,3.8-7.4,7.7-12.5,9.5c-1.7,0.6-4,1.1-5.5-0.3s-1-3.2-1.1-4.9c-2,2.6-3.7,5.5-6,7.9c-1.3,1.5-3,2.5-4.8,3
					c0.2,0.3,0.4,0.6,0.7,0.9c3,2.3,8.4-7.2,8.4-7.2c-4.3,13.7,19.3-4.9,19.3-4.9C57.3,38.9,74.1,38,74.1,38
					c-0.3,7.3,3.5,6.7,3.5,6.7c1.1-0.9,1.9-2,2.5-3.3C79.8,41.3,79.5,41.2,79.2,41.1z"/>
				<path class="st11" d="M54,47.1c1.6,0.6,3.4,0.6,5-0.2h0.1c2.5-1.2,4.8,2.4,1.7,4.5s-7.7,1.8-9.8-0.5
					C49.2,48.8,50.9,45.9,54,47.1z"/>
				<g>
					<defs>
						<path id="SVGID_3_" d="M54,47.1c1.6,0.6,3.4,0.6,5-0.2h0.1c2.5-1.2,4.8,2.4,1.7,4.5s-7.7,1.8-9.8-0.5
							C49.2,48.8,50.9,45.9,54,47.1z"/>
					</defs>
					<clipPath id="SVGID_4_">
						<use xlink:href="#SVGID_3_"  style="overflow:visible;"/>
					</clipPath>
					<g class="st12">
						<path class="st13" d="M60.8,51.4c0,0,0.3-2.6-4.3-0.5c0,0-3.8-2.1-4.9,0.6C51.6,51.4,55.3,54.8,60.8,51.4z"/>
					</g>
				</g>
				<g>
					<defs>
						<path id="SVGID_5_" d="M54.1,47c1.6,0.6,3.4,0.6,5-0.2h0.1c2.5-1.2,4.8,2.3,1.7,4.5s-7.7,1.8-9.8-0.5
							C49.3,48.7,50.9,45.8,54.1,47z"/>
					</defs>
					<clipPath id="SVGID_6_">
						<use xlink:href="#SVGID_5_"  style="overflow:visible;"/>
					</clipPath>
					<g class="st14">
						<path class="st15" d="M61.9,46.5c0,0,1.3,1.7-1.9,2.3c-2.5,0.3-5.1,0.4-7.6,0.3c-3.1-0.5-2.1-2.3-2.1-2.3S60.7,45.2,61.9,46.5
							z"/>
					</g>
				</g>
				<circle class="st16" cx="56.4" cy="55.9" r="55.9"/>
				<path class="st17" d="M36.7,37.7c0,2.2-0.7,4-1.5,4s-1.6-1.8-1.6-4s0.7-4,1.5-4S36.7,35.4,36.7,37.7z"/>
				<path class="st17" d="M39.4,42c-2.1,0.6-4,0.5-4.3-0.3s1.3-2,3.4-2.6s4-0.5,4.3,0.3S41.5,41.4,39.4,42z"/>
				<path class="st17" d="M36,45.9c-1.2-1.9-1.6-3.7-0.9-4.2s2.3,0.7,3.5,2.5s1.6,3.7,0.9,4.2S37.3,47.7,36,45.9z"/>
				<path class="st17" d="M31.4,43.7c1.4-1.7,3.1-2.6,3.8-2s0,2.4-1.4,4.1s-3.1,2.6-3.8,2S29.9,45.4,31.4,43.7z"/>
				<path class="st17" d="M32.1,38.6c2,0.9,3.4,2.3,3,3s-2.3,0.7-4.3-0.2s-3.4-2.3-3-3S30.1,37.7,32.1,38.6z"/>
				<path class="st18" d="M34.1,41.5c0,0.7,0.5,1.2,1.2,1.2s1.2-0.5,1.2-1.2s-0.5-1.2-1.2-1.2c0,0,0,0,0,0
					C34.6,40.4,34.1,40.9,34.1,41.5L34.1,41.5z"/>
				<path class="st17" d="M40.1,34.5c0,0.9-0.3,1.6-0.6,1.6s-0.6-0.7-0.6-1.6s0.3-1.6,0.6-1.6S40,33.6,40.1,34.5z"/>
				<path class="st17" d="M41.2,36.3c-0.9,0.3-1.6,0.2-1.7-0.1s0.5-0.8,1.4-1.1s1.6-0.2,1.7,0.1S42,36,41.2,36.3z"/>
				<path class="st17" d="M39.8,37.9c-0.5-0.8-0.7-1.5-0.4-1.7s0.9,0.3,1.4,1s0.7,1.5,0.4,1.7S40.3,38.6,39.8,37.9z"/>
				<path class="st17" d="M37.9,37c0.6-0.7,1.3-1,1.5-0.8s0,1-0.6,1.7s-1.3,1-1.5,0.8S37.3,37.7,37.9,37z"/>
				<path class="st17" d="M38.2,34.9c0.8,0.4,1.4,0.9,1.2,1.2s-0.9,0.3-1.7-0.1s-1.4-0.9-1.2-1.2S37.4,34.6,38.2,34.9z"/>
				<path class="st18" d="M39,36.1c0,0.3,0.2,0.5,0.5,0.5c0.3,0,0.5-0.2,0.5-0.5c0-0.3-0.2-0.5-0.5-0.5c0,0,0,0,0,0
					C39.2,35.6,39,35.8,39,36.1C39,36.1,39,36.1,39,36.1z"/>
				<path class="st17" d="M32,34.7c0,0.9-0.3,1.6-0.6,1.6s-0.6-0.7-0.6-1.6s0.3-1.6,0.6-1.6S32,33.8,32,34.7z"/>
				<path class="st17" d="M33.2,36.4c-0.9,0.3-1.6,0.2-1.7-0.1s0.5-0.8,1.4-1.1s1.6-0.2,1.7,0.1S34,36.2,33.2,36.4z"/>
				<path class="st17" d="M31.8,38c-0.5-0.8-0.6-1.5-0.4-1.7s0.9,0.3,1.4,1s0.7,1.5,0.4,1.7S32.3,38.8,31.8,38z"/>
				<path class="st17" d="M29.9,37.1c0.6-0.7,1.3-1.1,1.5-0.8s0,1-0.6,1.6s-1.3,1.1-1.5,0.8S29.3,37.8,29.9,37.1z"/>
				<path class="st17" d="M30.2,35.1c0.8,0.4,1.4,0.9,1.2,1.2s-0.9,0.3-1.7-0.1s-1.4-0.9-1.2-1.2S29.4,34.7,30.2,35.1z"/>
				<path class="st18" d="M31,36.3c0,0.3,0.2,0.5,0.5,0.5c0.3,0,0.5-0.2,0.5-0.5c0-0.3-0.2-0.5-0.5-0.5c0,0,0,0,0,0
					C31.2,35.8,31,36,31,36.3z"/>
			</g>
		</g>
	</g>
</g>
</svg>
