<svg xmlns="http://www.w3.org/2000/svg" xmlns:xlink="http://www.w3.org/1999/xlink" viewBox="0 0 111.78 151.33"><defs><style>.cls-1{fill:none;}.cls-2{clip-path:url(#clip-path);}.cls-3{fill:#b78682;}.cls-4{fill:#583f28;}.cls-5{fill:#deaf76;}.cls-6{fill:#a7382d;}.cls-7{fill:#840f09;}.cls-8{fill:#ca9561;}.cls-9{fill:#d0a16f;}.cls-10{fill:#181818;}.cls-11{fill:#d68a64;}.cls-12{fill:#704e32;}.cls-13{fill:#2c2c2b;}.cls-14{clip-path:url(#clip-path-2);}.cls-15{fill:#d04642;}.cls-16{clip-path:url(#clip-path-3);}.cls-17{fill:#fff;}.cls-18{fill:#f9f9f9;}</style><clipPath id="clip-path"><circle id="SVGID" class="cls-1" cx="55.89" cy="55.89" r="55.89" transform="translate(-10.18 99.28) rotate(-78.29)"/></clipPath><clipPath id="clip-path-2"><path id="SVGID-2" data-name="SVGID" class="cls-1" d="M53.72,43.41a6.06,6.06,0,0,0,4.78-.17l.08,0c2.36-1.16,4.56,2.26,1.62,4.3s-7.41,1.75-9.39-.5C49.08,45,50.69,42.27,53.72,43.41Z"/></clipPath><clipPath id="clip-path-3"><path id="SVGID-3" data-name="SVGID" class="cls-1" d="M53.77,43.35a6.09,6.09,0,0,0,4.79-.17l.07,0c2.36-1.16,4.56,2.26,1.62,4.3s-7.41,1.75-9.39-.5C49.13,45,50.74,42.21,53.77,43.35Z"/></clipPath></defs><title>Asset 6</title><g id="Layer_2" data-name="Layer 2"><g id="OBJECTS"><g class="cls-2"><circle class="cls-3" cx="55.89" cy="55.89" r="55.89" transform="translate(-10.18 99.28) rotate(-78.29)"/><path class="cls-4" d="M90.82,44.39c3.64-2.88-7.93-10.29-7.93-10.29-3.09-22.88-25.11-21-28.5-20.55C51,13.12,29,11.22,25.89,34.1c0,0-11.57,7.41-7.94,10.29s9.38-4.08,9.38-4.08S12.53,62.54,24.8,72.09c6.64,5.16,8.06,2.85,8-.35A7.7,7.7,0,0,0,39.32,76c8.54.78,8.25-7.13,8.25-7.13s.2,10.93,5.93,8.4a2.09,2.09,0,0,0,.89-1,2.08,2.08,0,0,0,.88,1c5.74,2.53,5.94-8.4,5.94-8.4s-.29,7.91,8.25,7.13A7.7,7.7,0,0,0,76,71.74c-.09,3.2,1.33,5.51,8,.35,12.26-9.55-2.53-31.78-2.53-31.78S87.19,47.27,90.82,44.39Z"/><path class="cls-5" d="M67.41,75.19s10.52-1.67,12.52,8.62,7.28,65.95,7.28,65.95l-3.77,1.57L73.24,94.49S73.5,79.06,67.41,75.19Z"/><path class="cls-5" d="M42.85,74.87s-10.6-2.06-12.6,8.23S23,149,23,149l3.77,1.58L37,93.77S36.76,78.74,42.85,74.87Z"/><path class="cls-6" d="M44,74.54c5.35-.84,12.63-1.93,21.7.06C70,75.55,73,80.34,73,84.78c-.13,9.83,1.5,26.52,2.55,30.87,2.07,8.65-8.35,11.48-19.69,10.89S36.31,126.49,36.15,116c-.15-9.58,0-12.83,0-32.57C36.1,78.4,39.08,75.31,44,74.54Z"/><path class="cls-6" d="M73.24,94.49,73.69,97h8c-.71-6-1.35-10.81-1.81-13.19-2-10.29-12.52-8.62-12.52-8.62C73.5,79.06,73.24,94.49,73.24,94.49Z"/><path class="cls-6" d="M36.37,97,37,93.77s-.19-15,5.9-18.9c0,0-10.6-2.06-12.6,8.23-.48,2.47-1.15,7.58-1.89,13.9Z"/><path class="cls-7" d="M73,88.87c-6.21,7-17.3,10.18-25.88,5.75-2.85-1.47-5.89-5.56-7.55-8a10.52,10.52,0,0,0-3.45-3.22h0s-.12,23,0,32.57c.16,10.54,8.35,10,19.68,10.59s21.76-2.24,19.69-10.89C74.61,111.86,73.25,98.7,73,88.87Z"/><path class="cls-5" d="M55.46,79.39h0a5.24,5.24,0,0,0,5.24-5.24V66.79a2.12,2.12,0,0,0-2.11-2.11H52.33a2.11,2.11,0,0,0-2.1,2.11v7.36A5.23,5.23,0,0,0,55.46,79.39Z"/><path class="cls-8" d="M50.23,73.47V68.19H60.7v5.57A22.47,22.47,0,0,1,50.23,73.47Z"/><path class="cls-5" d="M80.35,36.8s2.4,34.57-24.79,34.42S31,35.54,31,35.54,30.83,20,58,19.33a22.36,22.36,0,0,1,19,9.53A20.64,20.64,0,0,1,80.35,36.8Z"/><path class="cls-9" d="M70.64,63c5.78-4.59,8.57-11.78,8.7-19A65.89,65.89,0,0,0,77.7,30.22a16.14,16.14,0,0,1,2.66,6.58s2.4,34.57-24.79,34.42c-6.57,0-11.41-2.14-15-5.31C50.19,70.05,62.71,69.28,70.64,63Z"/><path class="cls-10" d="M63.19,38.85c0,1.7-.44,3.1-1.07,3.13s-1.16-1.34-1.2-3,.44-3.11,1.07-3.13,1.17,1.34,1.2,3.05"/><path class="cls-10" d="M50.63,38.85c0,1.7-.44,3.1-1.07,3.13s-1.17-1.34-1.2-3,.44-3.11,1.07-3.13,1.16,1.34,1.2,3.05"/><path class="cls-5" d="M79.65,40.53s15.52-10.34,15.06,8.14a11.74,11.74,0,0,1-3.85,8.6c-3.16,2.74-8.47,4-16.25-4.43Z"/><path class="cls-8" d="M87.94,48a4.06,4.06,0,1,1-3.29-4.75A4.08,4.08,0,0,1,87.94,48Z"/><path class="cls-8" d="M77.19,48.29s6.32-8.56,11.61-3.23C88.8,45.06,83.64,37.77,77.19,48.29Z"/><path class="cls-5" d="M33.5,39.42S18,29.08,18.44,47.56a11.76,11.76,0,0,0,3.85,8.61c3.16,2.74,8.47,4,16.25-4.43Z"/><path class="cls-8" d="M33.33,47.66S27,39.1,21.73,44.43C21.73,44.43,26.89,37.14,33.33,47.66Z"/><path class="cls-11" d="M65.52,45a5.63,5.63,0,0,0,5.59,5.72,5.7,5.7,0,0,0,5.94-5.41A5.77,5.77,0,0,0,65.52,45"/><path class="cls-11" d="M34,45A5.77,5.77,0,1,0,40,39.63,5.7,5.7,0,0,0,34,45"/><path class="cls-4" d="M80.39,40.08s-4.33,3.08-4.61-7.62c0,0-6.19,4.51-5.63-3.52,0,0-6.4,10.33-20.66-2.81,0,0,.73,4.36-3.94,1.9,0,0-.17,7.46-4.47,3.66,0,0-5.77,11.24-10.17,6.32,0,0-7-23.38,24.56-23S80.39,40.08,80.39,40.08Z"/><path class="cls-12" d="M41.68,22.78a.7.7,0,0,1-.7.71.71.71,0,0,1-.71-.71.7.7,0,0,1,.71-.7A.7.7,0,0,1,41.68,22.78Z"/><path class="cls-12" d="M46.68,23.91a1.83,1.83,0,1,1-1.83-1.83A1.83,1.83,0,0,1,46.68,23.91Z"/><path class="cls-12" d="M74.61,28.26a1.2,1.2,0,1,1-1.19-1.2A1.19,1.19,0,0,1,74.61,28.26Z"/><path class="cls-12" d="M77.29,29.2a.26.26,0,1,1-.26-.26A.26.26,0,0,1,77.29,29.2Z"/><path class="cls-13" d="M53.72,43.41a6.06,6.06,0,0,0,4.78-.17l.08,0c2.36-1.16,4.56,2.26,1.62,4.3s-7.41,1.75-9.39-.5C49.08,45,50.69,42.27,53.72,43.41Z"/><g class="cls-14"><path class="cls-15" d="M60.21,47.6s.28-2.54-4.13-.54c0,0-3.66-2-4.71.56C51.37,47.62,54.93,50.83,60.21,47.6Z"/></g><g class="cls-16"><path class="cls-17" d="M61.25,42.83s1.26,1.66-1.81,2.21a52.14,52.14,0,0,1-7.31.3c-3-.45-2-2.18-2-2.18S60.15,41.61,61.25,42.83Z"/></g><path class="cls-13" d="M65.52,31.05a7.61,7.61,0,0,0-7.6,7.09H54.28a7.62,7.62,0,1,0,0,1.06h3.64a7.62,7.62,0,1,0,7.6-8.15Z"/><path class="cls-18" d="M46.06,36.84a2.41,2.41,0,1,1-2.41-2.4A2.41,2.41,0,0,1,46.06,36.84Z"/><path class="cls-18" d="M46.06,33.28a.47.47,0,1,1-.47-.47A.47.47,0,0,1,46.06,33.28Z"/><path class="cls-18" d="M65,36.84a2.41,2.41,0,1,1-2.41-2.4A2.41,2.41,0,0,1,65,36.84Z"/><path class="cls-18" d="M65,33.28a.47.47,0,1,1-.47-.47A.47.47,0,0,1,65,33.28Z"/><path class="cls-8" d="M22.59,47.35a4.06,4.06,0,1,0,3.28-4.75A4.08,4.08,0,0,0,22.59,47.35Z"/></g></g></g></svg>