<?xml version="1.0" encoding="utf-8"?>
<!-- Generator: Adobe Illustrator 23.1.0, SVG Export Plug-In . SVG Version: 6.00 Build 0)  -->
<svg version="1.1" id="Layer_1" xmlns="http://www.w3.org/2000/svg" xmlns:xlink="http://www.w3.org/1999/xlink" x="0px" y="0px"
	 viewBox="0 0 111.8 111.8" style="enable-background:new 0 0 111.8 111.8;" xml:space="preserve">
<style type="text/css">
	.st0{clip-path:url(#SVGID_2_);}
	.st1{fill:#58D9CD;}
	.st2{fill:#C1915D;}
	.st3{fill:#271910;}
	.st4{fill:#0F0906;}
	.st5{fill:#F2395B;}
	.st6{fill:#AA7443;}
	.st7{fill:#B7824E;}
	.st8{fill:#181818;}
	.st9{fill:#C16A44;}
	.st10{fill:#DD224B;}
	.st11{fill:#2C2C2B;}
	.st12{clip-path:url(#SVGID_4_);}
	.st13{fill:#D04642;}
	.st14{clip-path:url(#SVGID_6_);}
	.st15{fill:#FFFFFF;}
	.st16{fill:#F2CB03;}
</style>
<title>Asset 5</title>
<g id="OBJECTS">
	<g>
		<defs>
			<circle id="SVGID_1_" cx="55.9" cy="55.9" r="55.9"/>
		</defs>
		<clipPath id="SVGID_2_">
			<use xlink:href="#SVGID_1_"  style="overflow:visible;"/>
		</clipPath>
		<g class="st0">
			<circle class="st1" cx="55.9" cy="55.9" r="55.9"/>
			<path class="st2" d="M63.5,76.5c0,0,9.9-1.5,11.8,8.1s6.9,62.3,6.9,62.3l-3.6,1.5L69,94.8C69,94.8,69.3,80.2,63.5,76.5z"/>
			<path class="st2" d="M46.4,76.5c0,0-9.9-1.5-11.8,8.1S27.7,147,27.7,147l3.6,1.5l9.6-53.7C40.9,94.8,40.7,80.2,46.4,76.5z"/>
			<path class="st3" d="M96.9,41.3c1-5.1-1.9-10.2-6.8-11.9c0.9-5.7-3-11.1-8.7-12c-1.5-0.2-3-0.2-4.4,0.2c-2.6-5.2-8.8-7.3-14-4.8
				c-0.2,0.1-0.3,0.2-0.5,0.2c-4.1-3.6-10.3-3.5-14.3,0.4c-5-2.9-11.4-1.1-14.3,3.9c-0.3,0.6-0.6,1.2-0.8,1.9
				c-5.2-0.3-9.9,3.3-10.9,8.5c-0.3,1.5-0.3,3.1,0.1,4.6c-0.9,1.3-1.6,2.7-1.9,4.2c-0.4,1.8-0.2,3.7,0.4,5.5
				c-4.5,3.7-5.2,10.3-1.5,14.8c0.6,0.7,1.2,1.3,1.9,1.8c-0.9,5.7,3.1,11.1,8.8,11.9c2.1,0.3,4.2,0,6.2-0.9c2.2,1.7,5.1,2.5,7.9,2.1
				c2.8,2.7,6.9,3.5,10.6,2.3c3,5,9.4,6.5,14.4,3.6c1.6-0.9,2.9-2.3,3.8-3.9c3.7-1.1,6.4-4.2,7.2-8c0-0.2,0-0.3,0.1-0.5
				c0.2,0.1,0.3,0.1,0.5,0.1c5.7,1.1,11.2-2.6,12.3-8.2c0.6-2.8-0.1-5.8-1.7-8.1C94.2,47.3,96.3,44.5,96.9,41.3z M75.3,47.2
				c0.4-3.8-0.3-7.7-1.9-11.2c0.9,0.7,1.8,1.2,2.9,1.5c-0.4,2.7,0.2,5.5,1.8,7.7C77,45.7,76.1,46.4,75.3,47.2z"/>
			<path class="st4" d="M94.3,32c0,0.4,0,0.8-0.1,1.2c-0.1,2.7-1.4,5.2-3.5,6.8c-1,0.9-2.3,1.2-3.6,0.9c2,3.9,3,9.6,0.3,12.9
				c-1.8,2.1-5.1,2.4-7.2,0.5c-0.1-0.1-0.2-0.2-0.3-0.3c0.4,4-0.6,8.6-3.6,11.1c-1.8,1.5-4.5,1.7-5.7,0.1c-0.8,3.2-2.5,6.4-6,6.8
				c-3.9,0.4-7.5-2.3-8.1-6.2c-3.3,4.1-11.4,3-11.1-2.8c-3,0.9-10.9,3-11.8-0.3c-4.8,3.9-15.4-6.9-8.7-11.4
				c-5.5-3.6-3.4-11.2,1.7-14.3c-1.8-1-3.4-2.3-4.8-3.8c-1.5,2.6-1.8,5.8-0.8,8.7c-4.5,3.7-5.2,10.3-1.5,14.8
				c0.6,0.7,1.2,1.3,1.9,1.8c-0.9,5.7,3.1,11.1,8.8,11.9c2.1,0.3,4.2,0,6.2-0.9c2.2,1.7,5.1,2.5,7.9,2.1c2.8,2.7,6.9,3.5,10.6,2.3
				c3,5,9.4,6.5,14.4,3.6c1.6-0.9,2.9-2.3,3.8-3.9c3.7-1.1,6.4-4.2,7.2-8c0-0.2,0-0.3,0.1-0.5c0.2,0.1,0.3,0.1,0.5,0.1
				c5.7,1.1,11.2-2.5,12.3-8.2c0.6-2.8-0.1-5.8-1.7-8.1c5.2-2.5,7.5-8.7,5-13.9C95.7,33.8,95.1,32.8,94.3,32z"/>
			<path class="st5" d="M44.6,75.8c5-0.8,11.9-1.8,20.5,0.1c4.1,0.9,6.9,5.4,6.9,9.6c-0.1,9.3,1.4,25,2.4,29.2
				c2,8.2-7.9,10.8-18.6,10.3s-18.4,0-18.6-10c-0.1-9.1,0-12.1,0-30.8C37.2,79.4,40,76.5,44.6,75.8z"/>
			<path class="st2" d="M55.4,80.4L55.4,80.4c2.7,0,5-2.2,5-4.9v-7c0-1.1-0.9-2-2-2h-5.9c-1.1,0-2,0.9-2,2v7
				C50.5,78.1,52.7,80.4,55.4,80.4C55.4,80.4,55.4,80.4,55.4,80.4z"/>
			<path class="st6" d="M50.5,74.8v-5h9.9V75C57.1,75.7,53.7,75.6,50.5,74.8z"/>
			<path class="st2" d="M78.9,40.1c0,0,2.3,32.7-23.4,32.5S32.3,38.9,32.3,38.9s-0.1-14.7,25.5-15.3c7.1-0.2,13.9,3.2,18,9
				C77.4,34.9,78.5,37.4,78.9,40.1z"/>
			<path class="st7" d="M39,38.5c1.3-0.8,2.4-2.2,3.8-2.8c2-0.8,4.4-0.7,6.5-1.3c2.2-0.7,4.3-1.7,6.3-2.9c0.2-0.1,0.4-0.1,0.6,0.1
				c1.6,1.3,3.7-0.1,5-1c0.2-0.1,0.4-0.1,0.6,0.1c1.4,1.1,2.8,1.2,4.4,1.5c0.3,0,0.6,0,0.9,0.2c1.5,0.8,1.8,2.8,3.3,3.8
				c2.3,1.6,5.2,2,7.9,1.1c-0.6-1.7-1.4-3.3-2.4-4.8c-4.1-5.8-10.9-9.2-18-9C32.3,24,32.4,38.8,32.4,38.8s0,0.3,0,0.7
				C34.6,40.2,37.1,39.9,39,38.5z"/>
			<path class="st7" d="M69.8,64.9c5.5-4.3,8.1-11.1,8.2-17.9c-0.1-4.4-0.6-8.8-1.6-13c1.3,1.8,2.2,3.9,2.6,6.2
				c0,0,2.3,32.7-23.4,32.5c-6.2,0-10.8-2-14.1-5C50.5,71.5,62.3,70.8,69.8,64.9z"/>
			<path class="st8" d="M62.7,42.1c0,1.6-0.4,2.9-1,3s-1.1-1.3-1.1-2.9s0.4-2.9,1-3S62.7,40.5,62.7,42.1"/>
			<path class="st8" d="M50.9,42.1c0,1.6-0.4,2.9-1,3s-1.1-1.3-1.1-2.9s0.4-2.9,1-3S50.8,40.5,50.9,42.1"/>
			<path class="st2" d="M78.6,40.8c0,0,14.7-9.7,14.2,7.7c0,3.1-1.3,6-3.6,8.1c-3,2.6-8,3.8-15.3-4.2L78.6,40.8z"/>
			<path class="st6" d="M86.5,47.8c-0.4,2.1-2.4,3.4-4.5,3.1c-2.1-0.4-3.4-2.4-3.1-4.5c0.4-2.1,2.4-3.4,4.4-3.1
				C85.4,43.7,86.8,45.7,86.5,47.8z"/>
			<path class="st6" d="M76.3,48.1c0,0,6-8.1,11-3C87.3,45,82.4,38.2,76.3,48.1z"/>
			<path class="st2" d="M34.7,42.6c0,0-14.7-9.8-14.2,7.7c0,3.1,1.3,6,3.6,8.1c3,2.6,8,3.8,15.3-4.2L34.7,42.6z"/>
			<path class="st6" d="M24.4,50.1c0.4,2.1,2.4,3.4,4.5,3.1c2.1-0.4,3.4-2.4,3.1-4.5c-0.4-2.1-2.4-3.4-4.4-3.1
				C25.4,46,24,48,24.4,50.1C24.4,50.1,24.4,50.1,24.4,50.1z"/>
			<path class="st6" d="M34.5,50.4c0,0-6-8.1-11-3C23.6,47.3,28.5,40.4,34.5,50.4z"/>
			<path class="st9" d="M64.9,47.9c-0.2,3,2.1,5.6,5.1,5.8c3,0.2,5.6-2.1,5.8-5.1c0.2-3-2.1-5.6-5.1-5.8c-0.1,0-0.1,0-0.2,0
				C67.6,42.7,65.1,44.9,64.9,47.9C64.9,47.9,64.9,47.9,64.9,47.9"/>
			<path class="st9" d="M35.2,47.9c-0.2,3,2.1,5.6,5.1,5.8c3,0.2,5.6-2.1,5.8-5.1c0.2-3-2.1-5.6-5.1-5.8c-0.1,0-0.1,0-0.2,0
				C37.9,42.7,35.3,44.9,35.2,47.9C35.2,47.9,35.2,47.9,35.2,47.9"/>
			<path class="st10" d="M72,89.3c-5.9,6.6-16.3,9.6-24.5,5.4c-2.7-1.4-5.6-5.3-7.1-7.6c-0.8-1.2-2-2.3-3.3-3l0,0
				c0,0-0.1,21.7,0,30.8c0.2,10,7.9,9.4,18.6,10s20.6-2.1,18.6-10.3C73.5,111,72.2,98.6,72,89.3z"/>
			<path class="st11" d="M53.7,47c1.6,0.6,3.3,0.5,4.8-0.2h0.1c2.4-1.2,4.6,2.2,1.6,4.2s-7.4,1.8-9.4-0.5
				C49.1,48.6,50.7,45.8,53.7,47z"/>
			<g>
				<defs>
					<path id="SVGID_3_" d="M53.7,47c1.6,0.6,3.3,0.5,4.8-0.2h0.1c2.4-1.2,4.6,2.2,1.6,4.2s-7.4,1.8-9.4-0.5
						C49.1,48.6,50.7,45.8,53.7,47z"/>
				</defs>
				<clipPath id="SVGID_4_">
					<use xlink:href="#SVGID_3_"  style="overflow:visible;"/>
				</clipPath>
				<g class="st12">
					<path class="st13" d="M60.2,51.1c0,0,0.3-2.5-4.1-0.5c0,0-3.7-2-4.7,0.5C51.4,51.2,54.9,54.4,60.2,51.1z"/>
				</g>
			</g>
			<g>
				<defs>
					<path id="SVGID_5_" d="M53.8,46.9c1.6,0.6,3.3,0.5,4.8-0.2h0.1c2.4-1.2,4.6,2.2,1.6,4.3s-7.4,1.8-9.4-0.5
						C49.1,48.5,50.8,45.8,53.8,46.9z"/>
				</defs>
				<clipPath id="SVGID_6_">
					<use xlink:href="#SVGID_5_"  style="overflow:visible;"/>
				</clipPath>
				<g class="st14">
					<path class="st15" d="M61.3,46.4c0,0,1.3,1.7-1.8,2.2c-2.4,0.3-4.9,0.4-7.3,0.3c-3-0.5-2-2.2-2-2.2S60.2,45.1,61.3,46.4z"/>
				</g>
			</g>
			<path class="st16" d="M80.9,54.2c0,1.4,1.1,2.5,2.5,2.5c1.4,0,2.5-1.1,2.5-2.5c0-1.4-1.1-2.5-2.5-2.5l0,0
				C82,51.7,80.9,52.8,80.9,54.2C80.9,54.2,80.9,54.2,80.9,54.2z"/>
			<circle class="st16" cx="29.1" cy="56.6" r="2.5"/>
			<path class="st3" d="M32,41.2c0,0,5.7,1,9.7-11c0,0,1,8,16-3c0,0,1,5,5,1c0,0,4,6,5,2c0,0,6.2,16.1,10.1,12.6s4.9-5.6,2.9-7.6
				s-4-16-24-14S23.3,31.2,32,41.2z"/>
			<polygon class="st16" points="29.2,55.9 31.8,61.1 37.5,61.9 33.4,66 34.4,71.7 29.2,69 24.1,71.7 25.1,66 20.9,61.9 26.7,61.1 
							"/>
			<polygon class="st16" points="83.2,55.9 85.8,61.1 91.5,61.9 87.4,66 88.4,71.7 83.2,69 78.1,71.7 79.1,66 74.9,61.9 80.7,61.1 
							"/>
			<path class="st5" d="M54,47c0,0-0.2-0.8,1.8-0.8s2,0.9,2,0.9c-0.6,0.2-1.3,0.3-2,0.3C55.2,47.3,54.6,47.2,54,47z"/>
			<path class="st5" d="M54.4,52.3c0,0,0.5,0.7,2.1,0.7s1.8-1,1.8-1C57.1,52.4,55.7,52.5,54.4,52.3z"/>
			<path class="st4" d="M74.3,37.5c-0.8-1-1.3-2.2-1.6-3.4c-0.3-1.3-0.1-2.9-0.6-4.1c-0.2-0.6-0.1-0.4-0.5-0.8
				c-0.3-0.2-1.1-0.4-1.4-0.6c-0.8-0.7-1.4-1.5-1.7-2.5c-2.3,1-4.1,0.8-5.5-1.3c-1.7,1-4.9,2.9-6.1,1c-3.6,2.6-11.4,6.8-14.9,2.9
				c-2.9,4-6.4,9.2-11.3,10.7c0.4,0.6,0.8,1.2,1.3,1.7c0,0,5.7,1,9.7-11c0,0,1,8,16-3c0,0,1,5,5,1c0,0,4,6,5,2
				c0,0,6.2,16.1,10.1,12.6c2.8-2.6,4.1-4.4,3.9-5.9C79.7,39.1,76.8,40.5,74.3,37.5z"/>
		</g>
	</g>
</g>
</svg>
