<?xml version="1.0" encoding="utf-8"?>
<!-- Generator: Adobe Illustrator 23.1.0, SVG Export Plug-In . SVG Version: 6.00 Build 0)  -->
<svg version="1.1" id="Layer_1" xmlns="http://www.w3.org/2000/svg" xmlns:xlink="http://www.w3.org/1999/xlink" x="0px" y="0px"
	 viewBox="0 0 111.8 111.8" style="enable-background:new 0 0 111.8 111.8;" xml:space="preserve">
<style type="text/css">
	.st0{clip-path:url(#SVGID_2_);}
	.st1{fill:#41A85F;}
	.st2{fill:#DF5605;}
	.st3{fill:#C94A0A;}
	.st4{fill:#DEAF76;}
	.st5{fill:#18384D;}
	.st6{fill:#0E2735;}
	.st7{fill:#CA9561;}
	.st8{fill:#D0A16F;}
	.st9{fill:#181818;}
	.st10{fill:#D68A64;}
	.st11{fill:#2C2C2B;}
	.st12{clip-path:url(#SVGID_4_);}
	.st13{fill:#D04642;}
	.st14{clip-path:url(#SVGID_6_);}
	.st15{fill:#FFFFFF;}
	.st16{fill:#271910;}
</style>
<title>Asset 9</title>
<g>
	<g id="OBJECTS">
		<g>
			<defs>
				<circle id="SVGID_1_" cx="55.9" cy="55.9" r="55.9"/>
			</defs>
			<clipPath id="SVGID_2_">
				<use xlink:href="#SVGID_1_"  style="overflow:visible;"/>
			</clipPath>
			<g class="st0">
				<circle class="st1" cx="55.9" cy="55.9" r="55.9"/>
				<path class="st2" d="M35.8,30.8c0,0-20.8-8.6,9.7-16.4c0,0,19.6-13.3,28.3,0S37.2,31.4,35.8,30.8z"/>
				<path class="st3" d="M73.8,14.4c-1.1-1.8-2.7-3.3-4.6-4.4c-0.2,1.3-0.5,2.6-1,3.9c-2.4,5.7-9,8.7-14.4,10.6
					c-6,2.1-12.7,4.3-18.7,1.1c-2.4-1.3-3.9-3.2-4.1-5.2c-6.7,5.6,4.9,10.4,4.9,10.4C37.2,31.4,82.5,27.7,73.8,14.4z"/>
				<path class="st4" d="M65.2,74.4c0,0,10.1-1.7,12.1,8.6s7,65.9,7,65.9l-3.6,1.6l-9.8-56.8C70.8,93.7,71.1,78.3,65.2,74.4z"/>
				<path class="st4" d="M44.1,74.1c0,0-10.2-2.1-12.1,8.2s-7,66-7,66l3.6,1.6L38.4,93C38.4,93,38.3,77.9,44.1,74.1z"/>
				<path class="st5" d="M70.8,93.7l0.4,2.5H79c-0.7-6-1.3-10.8-1.7-13.2c-1.9-10.3-12.1-8.6-12.1-8.6
					C71.1,78.3,70.8,93.7,70.8,93.7z"/>
				<path class="st5" d="M37.9,96.2l0.6-3.2c0,0-0.2-15,5.7-18.9c0,0-10.2-2.1-12.1,8.2c-0.5,2.5-1.1,7.6-1.8,13.9L37.9,96.2z"/>
				<path class="st5" d="M44.2,73c5-0.8,11.8-1.8,20.2,0.1c4,0.9,6.8,5.3,6.8,9.5c-0.1,9.2,1.4,24.7,2.4,28.8
					c1.9,8.1-7.8,10.7-18.3,10.2s-18.2,0-18.3-9.9c-0.1-8.9,0-12,0-30.3C36.9,76.5,39.6,73.7,44.2,73z"/>
				<path class="st6" d="M71.3,86.3c-5.8,6.5-16.1,9.5-24.1,5.3c-2.7-1.4-5.5-5.2-7-7.5c-0.8-1.2-1.9-2.3-3.2-3l0,0
					c0,0-0.1,21.4,0,30.3c0.2,9.8,7.8,9.3,18.3,9.9s20.3-2.1,18.4-10.2C72.8,107.7,71.5,95.5,71.3,86.3z"/>
				<path class="st4" d="M54.8,77.4L54.8,77.4c2.8,0,5-2.2,5-5v-7.1c0-1.1-0.9-2-2-2h-6c-1.1,0-2,0.9-2,2v7.1
					C49.8,75.1,52,77.4,54.8,77.4C54.8,77.4,54.8,77.4,54.8,77.4z"/>
				<path class="st7" d="M49.8,71.7v-5.1h10.1V72C56.5,72.7,53.1,72.6,49.8,71.7z"/>
				<path class="st4" d="M78.7,36.5c0,0,2.3,33.2-23.8,33.1S31.3,35.2,31.3,35.2s-0.1-15,26-15.6c7.3-0.2,14.2,3.2,18.3,9.2
					C77.2,31.1,78.2,33.7,78.7,36.5z"/>
				<path class="st8" d="M69.4,61.6c5.6-4.4,8.2-11.3,8.4-18.2c-0.1-4.5-0.6-8.9-1.6-13.3c1.3,1.9,2.2,4,2.6,6.3
					c0,0,2.3,33.2-23.8,33.1c-6.3,0-11-2-14.4-5.1C49.8,68.4,61.8,67.7,69.4,61.6z"/>
				<path class="st9" d="M62.3,38.4c0,1.6-0.4,3-1,3s-1.1-1.3-1.2-2.9s0.4-3,1-3S62.2,36.8,62.3,38.4"/>
				<path class="st9" d="M50.2,38.4c0,1.6-0.4,3-1,3S48,40.1,48,38.5s0.4-3,1-3S50.1,36.8,50.2,38.4"/>
				<path class="st4" d="M78.1,40c0,0,14.9-9.9,14.5,7.8c0,3.2-1.4,6.1-3.7,8.3c-3,2.6-8.1,3.9-15.6-4.3L78.1,40z"/>
				<path class="st7" d="M86,47.2c-0.4,2.1-2.4,3.5-4.6,3.1c-2.1-0.4-3.5-2.4-3.1-4.6c0.4-2.1,2.4-3.5,4.5-3.1
					C85,43,86.4,45.1,86,47.2C86,47.2,86,47.2,86,47.2z"/>
				<path class="st7" d="M75.7,47.5c0,0,6.1-8.2,11.2-3.1C86.9,44.4,81.9,37.4,75.7,47.5z"/>
				<path class="st4" d="M33.7,39c0,0-14.9-10-14.5,7.8c0,3.2,1.4,6.2,3.7,8.3c3,2.6,8.1,3.9,15.6-4.3L33.7,39z"/>
				<path class="st7" d="M23.2,46.6c0.4,2.1,2.5,3.5,4.6,3.1c2.1-0.4,3.5-2.5,3.1-4.6c-0.4-2.1-2.4-3.4-4.5-3.1
					C24.2,42.4,22.8,44.4,23.2,46.6C23.2,46.6,23.2,46.6,23.2,46.6z"/>
				<path class="st7" d="M33.5,46.9c0,0-6.1-8.2-11.1-3.1C22.4,43.8,27.4,36.8,33.5,46.9z"/>
				<path class="st10" d="M64.5,44.4c0,3,2.3,5.5,5.3,5.5c0,0,0,0,0,0c3,0,5.4-2.4,5.3-5.4c0-3-2.4-5.4-5.4-5.3
					C66.9,39.2,64.6,41.5,64.5,44.4"/>
				<path class="st10" d="M34.2,44.4c0,3,2.3,5.5,5.3,5.5c0,0,0,0,0,0c3,0,5.4-2.4,5.3-5.4c0-3-2.4-5.4-5.4-5.3
					C36.6,39.2,34.3,41.5,34.2,44.4"/>
				<path class="st11" d="M52.4,42.5c1.7,0.7,3.7,0.6,5.3-0.2h0.1c2.6-1.3,5.1,2.5,1.8,4.8s-8.2,1.9-10.5-0.6
					C47.3,44.3,49,41.2,52.4,42.5z"/>
				<g>
					<defs>
						<path id="SVGID_3_" d="M52.4,42.5c1.7,0.7,3.7,0.6,5.3-0.2h0.1c2.6-1.3,5.1,2.5,1.8,4.8s-8.2,1.9-10.5-0.6
							C47.3,44.3,49,41.2,52.4,42.5z"/>
					</defs>
					<clipPath id="SVGID_4_">
						<use xlink:href="#SVGID_3_"  style="overflow:visible;"/>
					</clipPath>
					<g class="st12">
						<path class="st13" d="M59.6,47.2c0,0,0.3-2.8-4.6-0.6c0,0-4.1-2.2-5.2,0.6C49.8,47.2,53.8,50.8,59.6,47.2z"/>
					</g>
				</g>
				<g>
					<defs>
						<path id="SVGID_5_" d="M52.5,42.4c1.7,0.7,3.7,0.6,5.3-0.2h0.1c2.6-1.3,5.1,2.5,1.8,4.8s-8.2,2-10.5-0.5
							C47.3,44.2,49.1,41.2,52.5,42.4z"/>
					</defs>
					<clipPath id="SVGID_6_">
						<use xlink:href="#SVGID_5_"  style="overflow:visible;"/>
					</clipPath>
					<g class="st14">
						<path class="st15" d="M60.8,41.8c0,0,1.4,1.9-2,2.5c-2.7,0.3-5.4,0.4-8.1,0.3c-3.3-0.5-2.2-2.4-2.2-2.4S59.6,40.5,60.8,41.8z"
							/>
					</g>
				</g>
				<path class="st16" d="M78.8,39.6l-1.1,1.3c0,0-1.6-13.6-7.7-15.2c0,0-15.4,5.2-23.3,4.5L57,27.3c0,0-4.7-4.2-15.8,2.8
					c2-3.7,5.8-6.2,10-6.6c0,0-12.8-2.4-20,13.7l-2.3-0.5c0,0,1.2-20,25.5-20.7l-4.6-1C49.8,15,83.6,14.2,78.8,39.6z"/>
				<path class="st2" d="M41.4,13.7c0,1,1.4,1.9,3.2,1.9s3.2-0.8,3.2-1.9s-1.4-1.8-3.2-1.8S41.4,12.7,41.4,13.7z"/>
			</g>
		</g>
	</g>
</g>
</svg>
