<svg xmlns="http://www.w3.org/2000/svg" xmlns:xlink="http://www.w3.org/1999/xlink" viewBox="0 0 111.78 167.25"><defs><style>.cls-1{fill:none;}.cls-2{clip-path:url(#clip-path);}.cls-3{fill:#fba026;}.cls-4{fill:#deaf76;}.cls-5{fill:#161616;}.cls-6{fill:#b8372f;}.cls-7{fill:#070707;}.cls-8{fill:#c1915d;}.cls-10,.cls-9{fill:#b7824e;}.cls-10{opacity:0.51;}.cls-11{fill:#181818;}.cls-12{fill:#ca9561;}.cls-13{fill:#d68a64;}.cls-14{fill:#2c2c2b;}.cls-15{clip-path:url(#clip-path-2);}.cls-16{fill:#d04642;}.cls-17{clip-path:url(#clip-path-3);}.cls-18{fill:#fff;}.cls-19{fill:#f2cb03;}</style><clipPath id="clip-path"><circle class="cls-1" cx="55.89" cy="55.89" r="55.89"/></clipPath><clipPath id="clip-path-2"><path class="cls-1" d="M53.77,49.85a7.43,7.43,0,0,0,5.83-.2l.08,0c2.88-1.4,5.56,2.76,2,5.24s-9,2.13-11.43-.61C48.12,51.84,50.09,48.47,53.77,49.85Z"/></clipPath><clipPath id="clip-path-3"><path class="cls-1" d="M53.84,49.78a7.4,7.4,0,0,0,5.82-.21l.09,0c2.88-1.4,5.56,2.76,2,5.23s-9,2.14-11.42-.6C48.19,51.77,50.15,48.4,53.84,49.78Z"/></clipPath></defs><title>Asset 11</title><g id="Layer_2" data-name="Layer 2"><g id="OBJECTS"><g class="cls-2"><circle class="cls-3" cx="55.89" cy="55.89" r="55.89"/><path class="cls-4" d="M42,83.7s-11.69-2.27-13.89,9.08-8,72.73-8,72.73l4.15,1.74,11.25-62.7S35.25,88,42,83.7Z"/><path class="cls-5" d="M43.24,83.34c5.9-.93,13.93-2.13,23.94.06,4.78,1,8.09,6.33,8,11.23-.15,10.85,1.65,29.25,2.8,34.05,2.29,9.54-9.21,12.67-21.71,12S34.76,140.64,34.58,129c-.17-10.56.05-14.15,0-35.92C34.53,87.59,37.82,84.19,43.24,83.34Z"/><path class="cls-6" d="M34.82,108.11l.64-3.56S35.25,88,42,83.7c0,0-11.69-2.27-13.89,9.08-.53,2.73-1.27,8.36-2.09,15.33Z"/><path class="cls-7" d="M75.23,99.15c-6.85,7.68-19.09,11.22-28.55,6.33-3.13-1.61-6.5-6.13-8.32-8.84a11.56,11.56,0,0,0-3.81-3.55h0s-.14,25.36,0,35.92c.18,11.63,9.21,11,21.71,11.68s24-2.47,21.71-12C77,124.5,75.51,110,75.23,99.15Z"/><path class="cls-5" d="M42,83.7s-11.69-2.27-13.89,9.08-8,72.73-8,72.73l4.15,1.74,11.25-62.7S35.25,88,42,83.7Z"/><path class="cls-5" d="M67.34,83.7S79,81.43,81.23,92.78s8,72.73,8,72.73l-4.15,1.74-11.25-62.7S74.06,88,67.34,83.7Z"/><path class="cls-8" d="M55.89,88.69h0a5.78,5.78,0,0,0,5.77-5.78V74.79a2.32,2.32,0,0,0-2.33-2.32H52.44a2.32,2.32,0,0,0-2.33,2.32v8.12A5.78,5.78,0,0,0,55.89,88.69Z"/><path class="cls-9" d="M50.12,82.15V76.34H61.66v6.13A24.61,24.61,0,0,1,50.12,82.15Z"/><path class="cls-8" d="M83.33,41.71S86,79.84,56,79.67,28.88,40.32,28.88,40.32s-.16-17.17,29.83-17.88A24.63,24.63,0,0,1,79.71,33,22.58,22.58,0,0,1,83.33,41.71Z"/><path class="cls-10" d="M72.63,70.59c6.37-5.06,9.44-13,9.6-20.89a72,72,0,0,0-1.82-15.24,17.59,17.59,0,0,1,2.94,7.25S86,79.84,56,79.67c-7.26,0-12.59-2.36-16.5-5.85C50.07,78.38,63.88,77.54,72.63,70.59Z"/><path class="cls-11" d="M64.41,44c0,1.88-.49,3.42-1.18,3.45S62,45.94,61.91,44.06s.48-3.43,1.18-3.45,1.28,1.48,1.32,3.36"/><path class="cls-11" d="M50.55,44c.05,1.88-.48,3.42-1.17,3.45s-1.29-1.48-1.33-3.36.49-3.43,1.18-3.45,1.28,1.48,1.32,3.36"/><path class="cls-8" d="M82.56,45.82s17.13-11.4,16.62,9a13,13,0,0,1-4.25,9.49c-3.48,3-9.34,4.44-17.92-4.88Z"/><path class="cls-12" d="M91.71,54a4.48,4.48,0,1,1-3.63-5.24A4.5,4.5,0,0,1,91.71,54Z"/><path class="cls-12" d="M79.86,54.38s7-9.44,12.8-3.56C92.66,50.82,87,42.78,79.86,54.38Z"/><path class="cls-8" d="M31.67,44.6s-17.13-11.41-16.62,9a13,13,0,0,0,4.25,9.49c3.48,3,9.34,4.44,17.92-4.88Z"/><path class="cls-9" d="M19.63,53.35a4.47,4.47,0,1,0,3.62-5.24A4.5,4.5,0,0,0,19.63,53.35Z"/><path class="cls-9" d="M31.48,53.68s-7-9.43-12.8-3.56C18.68,50.12,24.37,42.08,31.48,53.68Z"/><path class="cls-13" d="M67,50.8a6.36,6.36,0,1,0,6.54-6,6.28,6.28,0,0,0-6.54,6"/><path class="cls-13" d="M32.23,50.8a6.36,6.36,0,1,0,6.54-6,6.28,6.28,0,0,0-6.54,6"/><path class="cls-14" d="M53.77,49.85a7.43,7.43,0,0,0,5.83-.2l.08,0c2.88-1.4,5.56,2.76,2,5.24s-9,2.13-11.43-.61C48.12,51.84,50.09,48.47,53.77,49.85Z"/><g class="cls-15"><path class="cls-16" d="M61.67,55s.34-3.09-5-.65c0,0-4.45-2.43-5.72.67C50.92,55,55.25,58.89,61.67,55Z"/></g><g class="cls-17"><path class="cls-18" d="M62.93,49.14s1.55,2-2.19,2.69a62.61,62.61,0,0,1-8.9.37c-3.59-.55-2.42-2.65-2.42-2.65S61.6,47.66,62.93,49.14Z"/></g><polygon class="cls-19" points="55.88 93.09 59.27 99.95 66.85 101.05 61.37 106.39 62.66 113.94 55.88 110.38 49.11 113.94 50.4 106.39 44.92 101.05 52.5 99.95 55.88 93.09"/></g></g></g></svg>