<svg xmlns="http://www.w3.org/2000/svg" xmlns:xlink="http://www.w3.org/1999/xlink" viewBox="0 0 111.78 158.31"><defs><style>.cls-1{fill:none;}.cls-2{clip-path:url(#clip-path);}.cls-3{fill:#f2395b;}.cls-4{fill:#f2cb03;}.cls-5{fill:#e5ba03;}.cls-6{fill:#deaf76;}.cls-7{fill:#ff7fc9;}.cls-8{fill:#ca9561;}.cls-9{fill:#d0a16f;}.cls-10{fill:#d68a64;}.cls-11{fill:#f255b6;}.cls-12{fill:#181818;}.cls-13{clip-path:url(#clip-path-2);}.cls-14{fill:#d04642;}.cls-15{fill:#ff6b6b;}.cls-16{fill:#ce4545;}.cls-17{fill:#fff8f8;}</style><clipPath id="clip-path"><circle class="cls-1" cx="55.89" cy="55.89" r="55.89" transform="translate(-10.3 12.69) rotate(-11.87)"/></clipPath><clipPath id="clip-path-2"><path class="cls-1" d="M52.14,48.62c0,2.37,1.1,4.29,2.46,4.29s2.45-1.92,2.45-4.29-1.1-4.3-2.45-4.3S52.14,46.25,52.14,48.62Z"/></clipPath></defs><title>Asset 7</title><g id="Layer_2" data-name="Layer 2"><g id="OBJECTS"><g class="cls-2"><circle class="cls-3" cx="55.89" cy="55.89" r="55.89" transform="translate(-10.3 12.69) rotate(-11.87)"/><path class="cls-4" d="M55.56,14.62C55,14.55,9,8.08,26.22,72.48L28.56,68s-.95,15.94,7.59,19.55c0,0-2.09-9.62,1-9.77A22.18,22.18,0,0,0,54.63,95.4H56.5A22.18,22.18,0,0,0,74,77.75c3,.15.94,9.77.94,9.77C83.51,83.91,82.57,68,82.57,68l2.34,4.51C102.17,8.08,56.09,14.55,55.56,14.62Z"/><path class="cls-5" d="M87.3,62.1a3.44,3.44,0,0,1-2.5.88c-1.33-.11-2.24-1.15-3.21-2-.73,3.63.06,8.16-2.47,11.1-2.39,2.77-4.69.11-6.09-2.19-2.46,3.15-4.81,6.58-8.44,8.49s-8,1.84-12.05,1.37c-7.23-.83-11.07-5-14.39-11.05-1.38,1.44-3.09,3.69-5.13,3.53s-2.74-2.34-3.21-3.9a35.43,35.43,0,0,1-.83-4.2c-.21-1.17-.21-3.32-1.64-2.73-.74.31-1.35,1.32-2.08,1.76a4.86,4.86,0,0,1-1.05.46c.55,2.78,1.23,5.71,2.06,8.81l2.34-4.52s-.95,15.94,7.59,19.56c0,0-2.09-9.62.95-9.78A22.18,22.18,0,0,0,54.67,95.35h1.88A22.16,22.16,0,0,0,74.07,77.7c3,.16,1,9.78,1,9.78,8.54-3.62,7.6-19.56,7.6-19.56L85,72.44C85.94,68.76,86.71,65.33,87.3,62.1Z"/><path class="cls-6" d="M67.38,77.58s11.15-1.77,13.27,9.14,7.72,69.92,7.72,69.92l-4,1.67L73.56,98S73.84,81.68,67.38,77.58Z"/><path class="cls-6" d="M42.25,77.58S31.09,75.81,29,86.72s-7.72,69.92-7.72,69.92l4,1.67L36.07,98S35.79,81.68,42.25,77.58Z"/><path class="cls-7" d="M42.56,76.88c5.66-.89,13.39-2,23,.07,4.6,1,7.77,6.08,7.71,10.79-.15,10.43,1.59,28.12,2.69,32.74,2.2,9.17-8.85,12.17-20.87,11.54S34.4,132,34.23,120.79c-.16-10.16,0-13.6,0-34.53C34.18,81,37.34,77.71,42.56,76.88Z"/><path class="cls-6" d="M54.71,82h0a5.56,5.56,0,0,0,5.55-5.55V68.67A2.24,2.24,0,0,0,58,66.43H51.39a2.23,2.23,0,0,0-2.23,2.24v7.81A5.55,5.55,0,0,0,54.71,82Z"/><path class="cls-8" d="M49.16,75.75v-5.6h11.1v5.91A23.94,23.94,0,0,1,49.16,75.75Z"/><path class="cls-6" d="M81.09,36.87s2.55,36.66-26.28,36.49S28.75,35.54,28.75,35.54,28.59,19,57.42,18.34A23.68,23.68,0,0,1,77.61,28.45,21.7,21.7,0,0,1,81.09,36.87Z"/><path class="cls-9" d="M70.8,64.63c6.13-4.86,9.08-12.49,9.23-20.08A70.32,70.32,0,0,0,78.29,29.9a17.07,17.07,0,0,1,2.82,7s2.54,36.66-26.28,36.49c-7,0-12.1-2.27-15.87-5.62C49.12,72.12,62.39,71.31,70.8,64.63Z"/><path class="cls-6" d="M80.35,40.82s16.46-11,16,8.63a12.44,12.44,0,0,1-4.08,9.13c-3.35,2.9-9,4.26-17.23-4.7Z"/><path class="cls-8" d="M89.14,48.72a4.3,4.3,0,1,1-3.48-5A4.32,4.32,0,0,1,89.14,48.72Z"/><path class="cls-8" d="M77.75,49.05s6.7-9.07,12.31-3.42C90.06,45.63,84.58,37.89,77.75,49.05Z"/><path class="cls-6" d="M31.43,39.65s-16.47-11-16,8.63a12.42,12.42,0,0,0,4.08,9.12c3.34,2.91,9,4.27,17.23-4.69Z"/><path class="cls-8" d="M19.85,48.06a4.31,4.31,0,1,0,3.49-5A4.33,4.33,0,0,0,19.85,48.06Z"/><path class="cls-8" d="M31.25,48.38S24.55,39.31,18.94,45C18.94,45,24.41,37.23,31.25,48.38Z"/><path class="cls-10" d="M65.37,45.61a6,6,0,0,0,5.93,6.07,6.05,6.05,0,0,0,6.29-5.75,6,6,0,0,0-5.93-6.06,6,6,0,0,0-6.29,5.74"/><path class="cls-10" d="M32,45.61a6,6,0,0,0,5.93,6.07,6.06,6.06,0,0,0,6.29-5.75A6.12,6.12,0,0,0,32,45.61"/><path class="cls-11" d="M73.31,92.08C66.72,99.46,55,102.87,45.86,98.17c-3-1.55-6.25-5.89-8-8.5a11.06,11.06,0,0,0-3.66-3.41h0s-.13,24.37,0,34.53C34.4,132,43.08,131.39,55.1,132S78.17,129.65,76,120.48C75,116.45,73.57,102.5,73.31,92.08Z"/><path class="cls-12" d="M47.4,40.56c0,2.08.49,3.76,1.1,3.76s1.1-1.68,1.1-3.76-.5-3.76-1.1-3.76S47.4,38.48,47.4,40.56Z"/><path class="cls-12" d="M56.8,41.58a.65.65,0,0,1-.13-1,6.74,6.74,0,0,1,3.67-2.11,7.15,7.15,0,0,1,5.16,1.23.66.66,0,0,1,.17.93l0,0a.66.66,0,0,1-.9.17,5.74,5.74,0,0,0-4.13-1,5.36,5.36,0,0,0-2.91,1.68.65.65,0,0,1-.84.09Z"/><path class="cls-12" d="M52.14,48.62c0,2.37,1.1,4.29,2.46,4.29s2.45-1.92,2.45-4.29-1.1-4.3-2.45-4.3S52.14,46.25,52.14,48.62Z"/><g class="cls-13"><path class="cls-14" d="M51.78,52.14s-.34-1.87,3-.61c0,0,2.57-1.68,3.46.17C58.23,51.7,55.79,54.27,51.78,52.14Z"/></g><path class="cls-4" d="M81.16,40.33,80,41.73,76.71,29.9s-25.28-2.8-36.53-.72L39,26.55l-.88,3.35-1.31-.72L29.19,38.4S20.83,13.53,56.5,14.65,81.16,40.33,81.16,40.33Z"/><path class="cls-15" d="M52.55,20h0a5.43,5.43,0,0,0-9.26-1A5.42,5.42,0,0,0,34,20h0a5.09,5.09,0,0,0-.39,3.37v0c.47,2.52,2.58,6.25,9.66,10.56h0c7.09-4.31,9.2-8,9.66-10.56v0A5,5,0,0,0,52.55,20Z"/><path class="cls-16" d="M43.57,34.42l-.29.21L43,34.42c-7.36-4.48-9.45-8.41-9.91-10.93a5.7,5.7,0,0,1,.46-3.79l0-.05A6,6,0,0,1,39,16.27a5.92,5.92,0,0,1,4.31,1.86,5.92,5.92,0,0,1,4.32-1.86,6,6,0,0,1,5.4,3.4l0,0a5.63,5.63,0,0,1,.47,3.77C53,26,50.93,29.94,43.57,34.42ZM34.35,20.59a5,5,0,0,0-.18,2.68c.42,2.28,2.34,5.84,9.11,10,6.77-4.19,8.7-7.75,9.11-10a4.94,4.94,0,0,0-.18-2.7h0L52,20.23a4.86,4.86,0,0,0-8.31-.91l-.44.57-.44-.57a4.86,4.86,0,0,0-8.31.91l-.17.36Z"/><path class="cls-15" d="M74.63,20h0a5.42,5.42,0,0,0-9.25-1,5.43,5.43,0,0,0-9.26,1h0a5,5,0,0,0-.4,3.37v0c.46,2.52,2.57,6.25,9.65,10.56h0c7.08-4.31,9.19-8,9.65-10.56v0A5,5,0,0,0,74.63,20Z"/><path class="cls-16" d="M65.66,34.42l-.29.21-.3-.21c-7.35-4.48-9.45-8.41-9.91-10.93a5.6,5.6,0,0,1,.47-3.79l0-.05a6,6,0,0,1,5.39-3.38,6,6,0,0,1,4.32,1.86,5.92,5.92,0,0,1,4.31-1.86,6,6,0,0,1,5.4,3.4l0,0a5.7,5.7,0,0,1,.47,3.77C75.11,26,73,29.94,65.66,34.42ZM56.43,20.59a5,5,0,0,0-.18,2.68c.42,2.28,2.34,5.84,9.12,10,6.77-4.19,8.69-7.75,9.11-10a5,5,0,0,0-.18-2.7h0l-.17-.36a4.92,4.92,0,0,0-4.44-2.85,4.85,4.85,0,0,0-3.87,1.94l-.44.57-.44-.57a4.88,4.88,0,0,0-3.88-1.94,4.93,4.93,0,0,0-4.44,2.85l-.16.36Z"/><rect class="cls-16" x="51.18" y="21.37" width="5.76" height="1.74" rx="0.78"/><rect class="cls-16" x="72.81" y="18.34" width="4.94" height="1.74" rx="0.78"/><rect class="cls-16" x="31.25" y="18.34" width="4.94" height="1.74" rx="0.78"/><path class="cls-17" d="M39.69,21a1.61,1.61,0,1,1-1.61-1.6A1.61,1.61,0,0,1,39.69,21Z"/><path class="cls-17" d="M40,23.93a.65.65,0,1,1-.65-.65A.65.65,0,0,1,40,23.93Z"/><path class="cls-17" d="M61.92,21a1.61,1.61,0,1,1-1.61-1.6A1.61,1.61,0,0,1,61.92,21Z"/><path class="cls-17" d="M62.27,23.93a.65.65,0,1,1-.65-.65A.65.65,0,0,1,62.27,23.93Z"/></g></g></g></svg>