<?xml version="1.0" encoding="utf-8"?>
<!-- Generator: Adobe Illustrator 23.1.0, SVG Export Plug-In . SVG Version: 6.00 Build 0)  -->
<svg version="1.1" id="Layer_1" xmlns="http://www.w3.org/2000/svg" xmlns:xlink="http://www.w3.org/1999/xlink" x="0px" y="0px"
	 viewBox="0 0 111.8 111.8" style="enable-background:new 0 0 111.8 111.8;" xml:space="preserve">
<style type="text/css">
	.st0{clip-path:url(#SVGID_2_);}
	.st1{fill:#F27404;}
	.st2{fill:#DEAF76;}
	.st3{fill:#18384D;}
	.st4{fill:#CA9561;}
	.st5{fill:#D0A16F;}
	.st6{fill:#181818;}
	.st7{fill:#D68A64;}
	.st8{fill:#0F2B3A;}
	.st9{fill:#2C2C2B;}
	.st10{clip-path:url(#SVGID_4_);}
	.st11{fill:#D04642;}
	.st12{clip-path:url(#SVGID_6_);}
	.st13{fill:#FFFFFF;}
	.st14{fill:none;}
	.st15{fill:#F2CB03;}
	.st16{fill:#FFD62C;}
	.st17{fill:#E84C3D;}
</style>
<title>Asset 10</title>
<g>
	<g id="OBJECTS">
		<g>
			<defs>
				<circle id="SVGID_1_" cx="55.9" cy="55.9" r="55.9"/>
			</defs>
			<clipPath id="SVGID_2_">
				<use xlink:href="#SVGID_1_"  style="overflow:visible;"/>
			</clipPath>
			<g class="st0">
				<circle class="st1" cx="55.9" cy="55.9" r="55.9"/>
				<path class="st2" d="M67.5,79.9c0,0,11.3-1.8,13.4,9.2s7.8,70.7,7.8,70.7l-4,1.7l-11-60.9C73.7,100.6,74,84,67.5,79.9z"/>
				<path class="st3" d="M42.4,79.2c5.7-0.9,13.5-2.1,23.3,0.1c4.6,1,7.8,6.2,7.8,10.9c-0.1,10.5,1.6,28.4,2.7,33.1
					c2.2,9.3-9,12.3-21.1,11.7s-20.9-0.1-21.1-11.3c-0.2-10.3,0-13.8,0-34.9C34,83.3,37.1,80,42.4,79.2z"/>
				<path class="st3" d="M73.7,100.6l0.5,2.7h8.6c-0.8-6.4-1.4-11.6-1.9-14.1c-2.1-11-13.4-9.2-13.4-9.2
					C74,84,73.7,100.6,73.7,100.6z"/>
				<path class="st2" d="M41.6,79.9c0,0-11.3-1.8-13.4,9.2s-7.8,70.7-7.8,70.7l4,1.7l10.9-60.9C35.3,100.6,35.1,84,41.6,79.9z"/>
				<path class="st3" d="M35.3,100.6l-0.5,2.7h-8.6c0.8-6.4,1.4-11.6,1.9-14.1c2.1-11,13.4-9.2,13.4-9.2
					C35.1,84,35.3,100.6,35.3,100.6z"/>
				<path class="st2" d="M54.7,84.4L54.7,84.4c3.1,0,5.6-2.5,5.6-5.6v-7.9c0-1.2-1-2.3-2.3-2.3h-6.7c-1.2,0-2.3,1-2.3,2.3v7.9
					C49.1,81.9,51.6,84.4,54.7,84.4z"/>
				<path class="st4" d="M49.1,78v-5.6h11.2v6C56.6,79.1,52.7,79,49.1,78z"/>
				<path class="st2" d="M81.4,38.7c0,0,2.6,37-26.6,36.9S28.5,37.4,28.5,37.4s-0.1-16.7,29-17.4c8.1-0.3,15.7,3.6,20.4,10.2
					C79.6,32.8,80.8,35.7,81.4,38.7z"/>
				<path class="st5" d="M71,66.8c6.2-4.9,9.2-12.6,9.3-20.3c-0.1-5-0.6-9.9-1.8-14.8c1.5,2.1,2.4,4.5,2.8,7c0,0,2.6,37-26.6,36.9
					c-7,0-12.2-2.3-16-5.7C49,74.4,62.5,73.6,71,66.8z"/>
				<path class="st6" d="M63,40.9c0,1.8-0.5,3.3-1.2,3.4s-1.3-1.4-1.3-3.3s0.5-3.3,1.2-3.3S62.9,39.1,63,40.9"/>
				<path class="st6" d="M49.5,40.9c0,1.8-0.5,3.3-1.2,3.4s-1.3-1.4-1.3-3.3s0.5-3.3,1.2-3.3S49.5,39.1,49.5,40.9"/>
				<path class="st2" d="M80.6,42.7c0,0,16.6-11.1,16.1,8.7c0,3.5-1.5,6.9-4.1,9.2c-3.4,2.9-9.1,4.3-17.4-4.8L80.6,42.7z"/>
				<path class="st4" d="M87.6,53.6c-0.4,2.2-2.6,3.7-4.8,3.3c-2.2-0.4-3.7-2.6-3.3-4.8c0.4-2.2,2.5-3.7,4.8-3.3
					C86.5,49.2,88,51.4,87.6,53.6C87.6,53.6,87.6,53.6,87.6,53.6z"/>
				<path class="st4" d="M78,51.1c0,0,6.8-9.2,12.4-3.5C90.4,47.6,84.9,39.8,78,51.1z"/>
				<path class="st2" d="M31.2,41.6c0,0-16.6-11.1-16.2,8.7c0,3.5,1.5,6.9,4.1,9.2c3.4,2.9,9.1,4.3,17.4-4.7L31.2,41.6z"/>
				<path class="st4" d="M19.5,50.1c0.4,2.4,2.7,3.9,5.1,3.5c2.4-0.4,3.9-2.7,3.5-5.1c-0.4-2.4-2.7-3.9-5-3.5
					C20.6,45.4,19.1,47.7,19.5,50.1z"/>
				<path class="st4" d="M31,50.4c0,0-6.8-9.2-12.4-3.5C18.5,46.9,24.1,39.1,31,50.4z"/>
				<path class="st7" d="M65.5,47.6c-0.1,3.3,2.6,6.1,5.9,6.1c0,0,0.1,0,0.1,0c3.3,0,6-2.7,6-6c0-3.3-2.7-6-6-6
					C68.2,41.7,65.5,44.3,65.5,47.6"/>
				<path class="st7" d="M31.7,47.6c-0.2,3.4,2.4,6.3,5.8,6.6s6.3-2.4,6.6-5.8s-2.4-6.3-5.8-6.6c-0.1,0-0.1,0-0.2,0
					C34.7,41.6,31.9,44.2,31.7,47.6"/>
				<path class="st8" d="M73.5,94.5c-6.7,7.5-18.5,10.9-27.7,6.2c-3-1.6-6.3-6-8.1-8.6c-0.9-1.4-2.2-2.6-3.7-3.4l0,0
					c0,0-0.1,24.6,0,34.9c0.2,11.3,9,10.7,21.1,11.3s23.3-2.4,21.1-11.7C75.2,119.2,73.8,105.1,73.5,94.5z"/>
				<path class="st9" d="M53,45.8c1.8,0.7,3.8,0.6,5.5-0.2h0.1c2.7-1.3,5.3,2.6,1.9,5s-8.5,2-10.8-0.6C47.6,47.6,49.5,44.4,53,45.8z
					"/>
				<g>
					<defs>
						<path id="SVGID_3_" d="M53,45.8c1.8,0.7,3.8,0.6,5.5-0.2h0.1c2.7-1.3,5.3,2.6,1.9,5s-8.5,2-10.8-0.6
							C47.6,47.6,49.5,44.4,53,45.8z"/>
					</defs>
					<clipPath id="SVGID_4_">
						<use xlink:href="#SVGID_3_"  style="overflow:visible;"/>
					</clipPath>
					<g class="st10">
						<path class="st11" d="M60.4,50.6c0,0,0.3-2.9-4.8-0.6c0,0-4.2-2.3-5.4,0.6C50.3,50.6,54.4,54.3,60.4,50.6z"/>
					</g>
				</g>
				<g>
					<defs>
						<path id="SVGID_5_" d="M53,45.7c1.8,0.7,3.8,0.6,5.5-0.2h0.1c2.7-1.3,5.3,2.6,1.9,5s-8.5,2-10.8-0.6
							C47.7,47.6,49.5,44.4,53,45.7z"/>
					</defs>
					<clipPath id="SVGID_6_">
						<use xlink:href="#SVGID_5_"  style="overflow:visible;"/>
					</clipPath>
					<g class="st12">
						<path class="st13" d="M61.6,45.1c0,0,1.5,1.9-2.1,2.5c-2.8,0.3-5.6,0.4-8.4,0.3c-3.4-0.5-2.3-2.5-2.3-2.5S60.4,43.7,61.6,45.1
							z"/>
					</g>
				</g>
				<circle class="st14" cx="55.9" cy="55.9" r="55.9"/>
				<path class="st15" d="M28.4,40c5.4-3.2,9.6-8,11.9-13.7c0,0,3.4,7.1,20.6-0.4c0,0,7.2,7.1,9,2.9c0,0,6.8,16,11.5,13.4
					s-2.5-17.9-2.5-17.9s2.5,1.8,1.3-2.1S60.1,14,60.1,14s5.3-3.8,2.9-4.8s-5.7,3.1-5.7,3.1s-1.8-2.3-3.3-2.7s-4.7,0.7,0.1,4.3
					c0,0-12-1.3-19.9,5.7c0,0-2.3,1.8,1.5,1.8c0,0-10.3,6.7-12,17.2C25.4,38.8,26.9,39.3,28.4,40z"/>
				<path class="st15" d="M52.2,56.4c2.1,0.8,4.4,0.8,6.4,0c0.7,1.3,1,2.9,0.7,4.4l-0.8-1.4c0,0,0.2,3.4-2.7,3.9v-1.9
					c-0.4,1.5-1.4,2.8-2.8,3.5c-0.4-1.8-0.6-3.7-0.6-5.5L51.7,61C50.9,59.5,51.1,57.7,52.2,56.4z"/>
				<path class="st16" d="M54.2,13.9c-4-0.3-8,0.1-11.9,1.3c-1,0.9-2.2,2.2-0.5,3.1c0.9,0.5,2.5,0.1,3.4-0.1
					c0.3-0.1,0.5,0.1,0.6,0.4c0,0.2,0,0.4-0.2,0.5c-0.8,0.5-2.2,1.4-2.5,2.4c-0.7,2.1,1.8,2.6,3.5,2.3c2.6-0.5,4.9-2.3,6.9-3.9
					c0.3-0.2,0.9-0.1,0.8,0.4c-0.2,2.1,2.1,2.6,3.8,2.5c1.9-0.1,4.1-1.2,2.2-3.1c-0.5-0.5,0.2-1.1,0.7-0.7c2.6,2.3,6.3,3.6,9.8,2.5
					c1.6-0.4,2.8-1.6,3.4-3.1c-4.6-1.7-9.2-3.1-14-4.2c0,0,5.3-3.8,2.9-4.8s-5.7,3.1-5.7,3.1s-1.8-2.3-3.3-2.7S49.4,10.3,54.2,13.9z
					"/>
				<path class="st16" d="M52,56.6C52,56.6,52,56.6,52,56.6v0.1c-0.4,1.1-0.8,2.4-0.4,2.9c0,0.4,0.2,0.4,0.6,0.2
					c0.2-0.2,0.3-0.5,0.4-0.8c0.2-0.4,0.4-0.7,0.7-1c0.2-0.2,0.5-0.2,0.7,0c0.1,0.1,0.1,0.1,0.1,0.2c0.1,0.3,0.1,1.9,0.4,2.1
					s0.9-1.3,1.2-1.7c0.1-0.2,0.5-0.3,0.7-0.2c0.1,0.1,0.2,0.2,0.2,0.3c0.3,1.3,0.9,0.3,1.3-0.4c0.3-0.6,0.6-1.2,0.8-1.9l-0.1-0.1
					c-2.1,0.8-4.4,0.8-6.4,0C52.1,56.5,52,56.6,52,56.6z"/>
				<rect x="49.6" y="88.7" class="st17" width="3.4" height="3.4"/>
				<rect x="46.2" y="92" class="st17" width="3.4" height="3.4"/>
				<rect x="49.6" y="92" class="st17" width="3.4" height="3.4"/>
				<rect x="53" y="92" class="st17" width="3.4" height="3.4"/>
				<rect x="46.2" y="95.4" class="st17" width="3.4" height="3.4"/>
				<rect x="42.8" y="95.4" class="st17" width="3.4" height="3.4"/>
				<rect x="49.6" y="95.4" class="st17" width="3.4" height="3.4"/>
				<rect x="53" y="95.4" class="st17" width="3.4" height="3.4"/>
				<rect x="49.6" y="98.8" class="st17" width="3.4" height="3.4"/>
				<rect x="49.6" y="102.2" class="st17" width="6.8" height="3.4"/>
				<rect x="46.2" y="98.8" class="st17" width="3.4" height="3.4"/>
				<rect x="53" y="98.8" class="st17" width="3.4" height="3.4"/>
				<rect x="53" y="105.6" class="st17" width="3.4" height="3.4"/>
				<rect x="56.4" y="88.6" class="st17" width="3.4" height="3.4"/>
				<rect x="59.8" y="92" class="st17" width="3.4" height="3.4"/>
				<rect x="56.4" y="92" class="st17" width="3.4" height="3.4"/>
				<rect x="53" y="92" class="st17" width="3.4" height="3.4"/>
				<rect x="59.8" y="95.4" class="st17" width="3.4" height="3.4"/>
				<rect x="63.2" y="95.4" class="st17" width="3.4" height="3.4"/>
				<rect x="56.4" y="95.4" class="st17" width="3.4" height="3.4"/>
				<rect x="53" y="95.4" class="st17" width="3.4" height="3.4"/>
				<rect x="56.4" y="98.8" class="st17" width="3.4" height="3.4"/>
				<rect x="53" y="102.2" class="st17" width="6.8" height="3.4"/>
				<rect x="59.8" y="98.8" class="st17" width="3.4" height="3.4"/>
				<rect x="53" y="98.8" class="st17" width="3.4" height="3.4"/>
				<rect x="53" y="105.6" class="st17" width="3.4" height="3.4"/>
			</g>
		</g>
	</g>
</g>
</svg>
