<?xml version="1.0" encoding="utf-8"?>
<!-- Generator: Adobe Illustrator 23.1.0, SVG Export Plug-In . SVG Version: 6.00 Build 0)  -->
<svg version="1.1" id="Layer_1" xmlns="http://www.w3.org/2000/svg" xmlns:xlink="http://www.w3.org/1999/xlink" x="0px" y="0px"
	 viewBox="0 0 111.8 111.8" style="enable-background:new 0 0 111.8 111.8;" xml:space="preserve">
<style type="text/css">
	.st0{clip-path:url(#SVGID_2_);}
	.st1{fill:#B78682;}
	.st2{fill:#583F28;}
	.st3{fill:#DEAF76;}
	.st4{fill:#A7382D;}
	.st5{fill:#840F09;}
	.st6{fill:#CA9561;}
	.st7{fill:#D0A16F;}
	.st8{fill:#181818;}
	.st9{fill:#D68A64;}
	.st10{fill:#704E32;}
	.st11{fill:#2C2C2B;}
	.st12{clip-path:url(#SVGID_4_);}
	.st13{fill:#D04642;}
	.st14{clip-path:url(#SVGID_6_);}
	.st15{fill:#FFFFFF;}
	.st16{fill:#F9F9F9;}
</style>
<title>Asset 6</title>
<g>
	<g id="OBJECTS">
		<g>
			<defs>
				<circle id="SVGID_1_" cx="55.9" cy="55.9" r="55.9"/>
			</defs>
			<clipPath id="SVGID_2_">
				<use xlink:href="#SVGID_1_"  style="overflow:visible;"/>
			</clipPath>
			<g class="st0">
				<circle class="st1" cx="55.9" cy="55.9" r="55.9"/>
				<path class="st2" d="M90.8,44.4c3.6-2.9-7.9-10.3-7.9-10.3c-3.1-22.9-25.1-21-28.5-20.5C51,13.1,29,11.2,25.9,34.1
					c0,0-11.6,7.4-7.9,10.3s9.4-4.1,9.4-4.1s-14.8,22.2-2.5,31.8c6.6,5.2,8.1,2.8,8-0.3c1.2,2.5,3.7,4.1,6.5,4.3
					c8.5,0.8,8.3-7.1,8.3-7.1s0.2,10.9,5.9,8.4c0.4-0.2,0.7-0.6,0.9-1c0.2,0.4,0.5,0.8,0.9,1c5.7,2.5,5.9-8.4,5.9-8.4
					s-0.3,7.9,8.3,7.1c2.8-0.1,5.3-1.8,6.5-4.3c-0.1,3.2,1.3,5.5,8,0.3c12.3-9.5-2.5-31.8-2.5-31.8S87.2,47.3,90.8,44.4z"/>
				<path class="st3" d="M67.4,75.2c0,0,10.5-1.7,12.5,8.6s7.3,66,7.3,66l-3.8,1.6L73.2,94.5C73.2,94.5,73.5,79.1,67.4,75.2z"/>
				<path class="st3" d="M42.8,74.9c0,0-10.6-2.1-12.6,8.2S23,149,23,149l3.8,1.6L37,93.8C37,93.8,36.8,78.7,42.8,74.9z"/>
				<path class="st4" d="M44,74.5c5.3-0.8,12.6-1.9,21.7,0.1c4.3,1,7.3,5.7,7.3,10.2c-0.1,9.8,1.5,26.5,2.6,30.9
					c2.1,8.7-8.3,11.5-19.7,10.9s-19.5-0.1-19.7-10.5c-0.2-9.6,0-12.8,0-32.6C36.1,78.4,39.1,75.3,44,74.5z"/>
				<path class="st4" d="M73.2,94.5l0.5,2.5h8c-0.7-6-1.3-10.8-1.8-13.2c-2-10.3-12.5-8.6-12.5-8.6C73.5,79.1,73.2,94.5,73.2,94.5z"
					/>
				<path class="st4" d="M36.4,97l0.6-3.2c0,0-0.2-15,5.9-18.9c0,0-10.6-2.1-12.6,8.2c-0.5,2.5-1.1,7.6-1.9,13.9L36.4,97z"/>
				<path class="st5" d="M73,88.9c-6.2,7-17.3,10.2-25.9,5.8c-2.8-1.5-5.9-5.6-7.5-8c-0.9-1.3-2.1-2.4-3.5-3.2l0,0
					c0,0-0.1,23,0,32.6c0.2,10.5,8.3,10,19.7,10.6s21.8-2.2,19.7-10.9C74.6,111.9,73.3,98.7,73,88.9z"/>
				<path class="st3" d="M55.5,79.4L55.5,79.4c2.9,0,5.2-2.3,5.2-5.2v-7.4c0-1.2-0.9-2.1-2.1-2.1h-6.3c-1.2,0-2.1,0.9-2.1,2.1v7.4
					C50.2,77,52.6,79.4,55.5,79.4C55.5,79.4,55.5,79.4,55.5,79.4z"/>
				<path class="st6" d="M50.2,73.5v-5.3h10.5v5.6C57.2,74.5,53.6,74.4,50.2,73.5z"/>
				<path class="st3" d="M80.3,36.8c0,0,2.4,34.6-24.8,34.4S31,35.5,31,35.5S30.8,20,58,19.3c7.5-0.2,14.7,3.4,19,9.5
					C78.7,31.2,79.8,33.9,80.3,36.8z"/>
				<path class="st7" d="M70.6,63c5.8-4.6,8.6-11.8,8.7-19c-0.1-4.6-0.6-9.3-1.6-13.8c1.4,2,2.3,4.2,2.7,6.6c0,0,2.4,34.6-24.8,34.4
					c-6.6,0-11.4-2.1-15-5.3C50.2,70,62.7,69.3,70.6,63z"/>
				<path class="st8" d="M63.2,38.8c0,1.7-0.4,3.1-1.1,3.1s-1.2-1.3-1.2-3s0.4-3.1,1.1-3.1S63.2,37.2,63.2,38.8"/>
				<path class="st8" d="M50.6,38.8c0,1.7-0.4,3.1-1.1,3.1s-1.2-1.3-1.2-3s0.4-3.1,1.1-3.1S50.6,37.2,50.6,38.8"/>
				<path class="st3" d="M79.7,40.5c0,0,15.5-10.3,15.1,8.1c0,3.3-1.4,6.4-3.8,8.6c-3.2,2.7-8.5,4-16.3-4.4L79.7,40.5z"/>
				<path class="st6" d="M87.9,48c-0.4,2.2-2.5,3.7-4.7,3.2c-2.2-0.4-3.7-2.5-3.2-4.7c0.4-2.2,2.5-3.6,4.7-3.2
					C86.9,43.6,88.3,45.8,87.9,48C87.9,48,87.9,48,87.9,48z"/>
				<path class="st6" d="M77.2,48.3c0,0,6.3-8.6,11.6-3.2C88.8,45.1,83.6,37.8,77.2,48.3z"/>
				<path class="st3" d="M33.5,39.4c0,0-15.5-10.3-15.1,8.1c0,3.3,1.4,6.4,3.9,8.6c3.2,2.7,8.5,4,16.3-4.4L33.5,39.4z"/>
				<path class="st6" d="M33.3,47.7c0,0-6.3-8.6-11.6-3.2C21.7,44.4,26.9,37.1,33.3,47.7z"/>
				<path class="st9" d="M65.5,45c0,3.1,2.4,5.7,5.5,5.7c0,0,0,0,0.1,0c3.1,0.1,5.8-2.3,5.9-5.4c0-3.2-2.6-5.8-5.8-5.7
					C68.2,39.6,65.7,42,65.5,45"/>
				<path class="st9" d="M34,45c-0.2,3.2,2.2,5.9,5.4,6.2c3.2,0.2,5.9-2.2,6.2-5.4c0.2-3.2-2.2-5.9-5.4-6.2c-0.1,0-0.1,0-0.2,0
					C36.9,39.5,34.2,41.9,34,45"/>
				<path class="st2" d="M80.4,40.1c0,0-4.3,3.1-4.6-7.6c0,0-6.2,4.5-5.6-3.5c0,0-6.4,10.3-20.7-2.8c0,0,0.7,4.4-3.9,1.9
					c0,0-0.2,7.5-4.5,3.7c0,0-5.8,11.2-10.2,6.3c0,0-7-23.4,24.6-23S80.4,40.1,80.4,40.1z"/>
				<path class="st10" d="M41.7,22.8c0,0.4-0.3,0.7-0.7,0.7c0,0,0,0,0,0c-0.4,0-0.7-0.3-0.7-0.7c0-0.4,0.3-0.7,0.7-0.7c0,0,0,0,0,0
					C41.4,22.1,41.7,22.4,41.7,22.8L41.7,22.8z"/>
				<path class="st10" d="M46.7,23.9c0,1-0.8,1.8-1.8,1.8c-1,0-1.8-0.8-1.8-1.8s0.8-1.8,1.8-1.8S46.7,22.9,46.7,23.9L46.7,23.9z"/>
				<path class="st10" d="M74.6,28.3c0,0.7-0.5,1.2-1.2,1.2c-0.7,0-1.2-0.5-1.2-1.2c0-0.7,0.5-1.2,1.2-1.2c0,0,0,0,0,0
					C74.1,27.1,74.6,27.6,74.6,28.3C74.6,28.3,74.6,28.3,74.6,28.3z"/>
				<path class="st10" d="M77.3,29.2c0,0.1-0.1,0.3-0.3,0.3s-0.3-0.1-0.3-0.3s0.1-0.3,0.3-0.3S77.3,29.1,77.3,29.2L77.3,29.2z"/>
				<path class="st11" d="M53.7,43.4c1.5,0.6,3.3,0.5,4.8-0.2h0.1c2.4-1.2,4.6,2.3,1.6,4.3s-7.4,1.8-9.4-0.5
					C49.1,45,50.7,42.3,53.7,43.4z"/>
				<g>
					<defs>
						<path id="SVGID_3_" d="M53.7,43.4c1.5,0.6,3.3,0.5,4.8-0.2h0.1c2.4-1.2,4.6,2.3,1.6,4.3s-7.4,1.8-9.4-0.5
							C49.1,45,50.7,42.3,53.7,43.4z"/>
					</defs>
					<clipPath id="SVGID_4_">
						<use xlink:href="#SVGID_3_"  style="overflow:visible;"/>
					</clipPath>
					<g class="st12">
						<path class="st13" d="M60.2,47.6c0,0,0.3-2.5-4.1-0.5c0,0-3.7-2-4.7,0.6C51.4,47.6,54.9,50.8,60.2,47.6z"/>
					</g>
				</g>
				<g>
					<defs>
						<path id="SVGID_5_" d="M53.8,43.3c1.6,0.6,3.3,0.5,4.8-0.2h0.1c2.4-1.2,4.6,2.3,1.6,4.3s-7.4,1.8-9.4-0.5
							C49.1,45,50.7,42.2,53.8,43.3z"/>
					</defs>
					<clipPath id="SVGID_6_">
						<use xlink:href="#SVGID_5_"  style="overflow:visible;"/>
					</clipPath>
					<g class="st14">
						<path class="st15" d="M61.3,42.8c0,0,1.3,1.7-1.8,2.2c-2.4,0.3-4.9,0.4-7.3,0.3c-3-0.5-2-2.2-2-2.2S60.2,41.6,61.3,42.8z"/>
					</g>
				</g>
				<path class="st11" d="M65.5,31c-4,0-7.3,3.1-7.6,7.1h-3.6c-0.3-4.2-3.9-7.4-8.1-7.1s-7.4,3.9-7.1,8.1c0.3,4.2,3.9,7.4,8.1,7.1
					C51,46,54,43,54.3,39.2h3.6c0.3,4.2,3.9,7.4,8.1,7.1c4.2-0.3,7.4-3.9,7.1-8.1C72.8,34.1,69.5,31,65.5,31z"/>
				<path class="st16" d="M46.1,36.8c0,1.3-1.1,2.4-2.4,2.4c-1.3,0-2.4-1.1-2.4-2.4c0-1.3,1.1-2.4,2.4-2.4c0,0,0,0,0,0
					C45,34.4,46.1,35.5,46.1,36.8z"/>
				<path class="st16" d="M46.1,33.3c0,0.3-0.2,0.5-0.5,0.5c-0.3,0-0.5-0.2-0.5-0.5c0-0.3,0.2-0.5,0.5-0.5
					C45.8,32.8,46.1,33,46.1,33.3C46.1,33.3,46.1,33.3,46.1,33.3z"/>
				<path class="st16" d="M65,36.8c0,1.3-1.1,2.4-2.4,2.4c-1.3,0-2.4-1.1-2.4-2.4c0-1.3,1.1-2.4,2.4-2.4c0,0,0,0,0,0
					C63.9,34.4,65,35.5,65,36.8z"/>
				<path class="st16" d="M65,33.3c0,0.3-0.2,0.5-0.5,0.5c-0.3,0-0.5-0.2-0.5-0.5c0-0.3,0.2-0.5,0.5-0.5S65,33,65,33.3
					C65,33.3,65,33.3,65,33.3z"/>
				<path class="st6" d="M22.6,47.3c0.4,2.2,2.5,3.7,4.7,3.2s3.7-2.5,3.2-4.7c-0.4-2.2-2.5-3.6-4.7-3.2C23.7,43,22.2,45.1,22.6,47.3
					C22.6,47.3,22.6,47.3,22.6,47.3z"/>
			</g>
		</g>
	</g>
</g>
</svg>
