<svg xmlns="http://www.w3.org/2000/svg" xmlns:xlink="http://www.w3.org/1999/xlink" viewBox="0 0 111.78 150.54"><defs><style>.cls-1{fill:none;}.cls-2{clip-path:url(#clip-path);}.cls-3{fill:#41a85f;}.cls-4{fill:#df5605;}.cls-5{fill:#c94a0a;}.cls-6{fill:#deaf76;}.cls-7{fill:#18384d;}.cls-8{fill:#0e2735;}.cls-9{fill:#ca9561;}.cls-10{fill:#d0a16f;}.cls-11{fill:#181818;}.cls-12{fill:#d68a64;}.cls-13{fill:#2c2c2b;}.cls-14{clip-path:url(#clip-path-2);}.cls-15{fill:#d04642;}.cls-16{clip-path:url(#clip-path-3);}.cls-17{fill:#fff;}.cls-18{fill:#271910;}</style><clipPath id="clip-path"><circle class="cls-1" cx="55.89" cy="55.89" r="55.89"/></clipPath><clipPath id="clip-path-2"><path class="cls-1" d="M52.41,42.5a6.81,6.81,0,0,0,5.33-.19l.08,0c2.63-1.28,5.08,2.53,1.8,4.79S51.38,49,49.17,46.51C47.25,44.32,49,41.23,52.41,42.5Z"/></clipPath><clipPath id="clip-path-3"><path class="cls-1" d="M52.47,42.43a6.72,6.72,0,0,0,5.33-.19l.08,0c2.63-1.29,5.08,2.52,1.8,4.78s-8.24,1.95-10.45-.55C47.31,44.25,49.1,41.17,52.47,42.43Z"/></clipPath></defs><title>Asset 9</title><g id="Layer_2" data-name="Layer 2"><g id="OBJECTS"><g class="cls-2"><circle class="cls-3" cx="55.89" cy="55.89" r="55.89"/><path class="cls-4" d="M35.83,30.78S15,22.23,45.49,14.4c0,0,19.57-13.34,28.29,0S37.22,31.44,35.83,30.78Z"/><path class="cls-5" d="M73.78,14.4A12.83,12.83,0,0,0,69.17,10a14.42,14.42,0,0,1-1,3.89c-2.43,5.68-9,8.7-14.41,10.6-6,2.09-12.7,4.33-18.72,1.06-2.39-1.3-3.85-3.16-4.09-5.19-6.66,5.65,4.87,10.38,4.87,10.38C37.22,31.44,82.49,27.73,73.78,14.4Z"/><path class="cls-6" d="M65.2,74.4S75.34,72.73,77.26,83s7,65.94,7,65.94l-3.63,1.58L70.81,93.69S71.07,78.26,65.2,74.4Z"/><path class="cls-6" d="M44.12,74.08S33.91,72,32,82.3s-7,66-7,66l3.63,1.57L38.44,93S38.25,77.94,44.12,74.08Z"/><path class="cls-7" d="M70.81,93.69l.44,2.51H79c-.68-6-1.29-10.8-1.74-13.18C75.34,72.73,65.2,74.4,65.2,74.4,71.07,78.26,70.81,93.69,70.81,93.69Z"/><path class="cls-7" d="M37.88,96.2,38.44,93s-.19-15,5.68-18.89c0,0-10.21-2.07-12.13,8.22-.46,2.48-1.11,7.58-1.82,13.9Z"/><path class="cls-7" d="M44.23,73c5-.78,11.77-1.79,20.22.06,4,.88,6.83,5.34,6.78,9.48-.13,9.17,1.39,24.72,2.37,28.77,1.93,8.06-7.79,10.7-18.35,10.15s-18.19,0-18.34-9.87c-.14-8.93,0-12,0-30.35C36.86,76.55,39.64,73.68,44.23,73Z"/><path class="cls-8" d="M71.26,86.32c-5.79,6.49-16.13,9.48-24.13,5.35-2.65-1.37-5.49-5.18-7-7.47a9.73,9.73,0,0,0-3.22-3h0s-.11,21.42,0,30.35c.15,9.83,7.78,9.31,18.34,9.87s20.28-2.09,18.35-10.15C72.75,107.74,71.49,95.48,71.26,86.32Z"/><path class="cls-6" d="M54.82,77.41h0a5,5,0,0,0,5-5V65.3a2,2,0,0,0-2-2h-6a2,2,0,0,0-2,2v7.08A5,5,0,0,0,54.82,77.41Z"/><path class="cls-9" d="M49.79,71.72V66.65H59.85V72A21.66,21.66,0,0,1,49.79,71.72Z"/><path class="cls-6" d="M78.74,36.46S81.05,69.7,54.91,69.55s-23.63-34.3-23.63-34.3-.14-15,26-15.58a21.46,21.46,0,0,1,18.31,9.16A19.76,19.76,0,0,1,78.74,36.46Z"/><path class="cls-10" d="M69.41,61.64c5.55-4.41,8.24-11.33,8.37-18.21A63.5,63.5,0,0,0,76.2,30.14a15.44,15.44,0,0,1,2.55,6.32S81.06,69.7,54.92,69.55c-6.32,0-11-2-14.38-5.09C49.75,68.43,61.79,67.7,69.41,61.64Z"/><path class="cls-11" d="M62.25,38.43c0,1.64-.42,3-1,3s-1.12-1.29-1.15-2.93.42-3,1-3,1.12,1.29,1.16,2.93"/><path class="cls-11" d="M50.17,38.43c0,1.64-.42,3-1,3S48,40.15,48,38.51s.42-3,1-3,1.12,1.29,1.15,2.93"/><path class="cls-6" d="M78.07,40.05S93,30.11,92.55,47.88a11.31,11.31,0,0,1-3.7,8.27c-3,2.63-8.14,3.87-15.62-4.26Z"/><path class="cls-9" d="M86,47.21a3.9,3.9,0,1,1-3.16-4.56A3.92,3.92,0,0,1,86,47.21Z"/><path class="cls-9" d="M75.71,47.51s6.07-8.23,11.16-3.11C86.87,44.4,81.91,37.39,75.71,47.51Z"/><path class="cls-6" d="M33.71,39S18.78,29,19.23,46.81a11.24,11.24,0,0,0,3.7,8.27c3,2.64,8.14,3.87,15.62-4.26Z"/><path class="cls-9" d="M23.21,46.61A3.9,3.9,0,1,0,26.37,42,3.94,3.94,0,0,0,23.21,46.61Z"/><path class="cls-9" d="M33.54,46.9s-6.07-8.23-11.15-3.1C22.39,43.8,27.35,36.79,33.54,46.9Z"/><path class="cls-12" d="M64.49,44.39a5.42,5.42,0,0,0,5.37,5.5,5.36,5.36,0,1,0-5.37-5.5"/><path class="cls-12" d="M34.2,44.39a5.42,5.42,0,0,0,5.38,5.5,5.36,5.36,0,1,0-5.38-5.5"/><path class="cls-13" d="M52.41,42.5a6.81,6.81,0,0,0,5.33-.19l.08,0c2.63-1.28,5.08,2.53,1.8,4.79S51.38,49,49.17,46.51C47.25,44.32,49,41.23,52.41,42.5Z"/><g class="cls-14"><path class="cls-15" d="M59.63,47.16s.32-2.82-4.59-.6c0,0-4.08-2.22-5.24.62C49.8,47.18,53.77,50.76,59.63,47.16Z"/></g><g class="cls-16"><path class="cls-17" d="M60.79,41.85s1.41,1.86-2,2.46a57.84,57.84,0,0,1-8.14.34c-3.28-.51-2.21-2.43-2.21-2.43S59.57,40.5,60.79,41.85Z"/></g><path class="cls-18" d="M78.79,39.56l-1.06,1.31S76.18,27.3,70,25.68c0,0-15.41,5.17-23.28,4.46L57,27.3s-4.66-4.2-15.75,2.84a12.76,12.76,0,0,1,10-6.59s-12.82-2.43-20,13.72l-2.33-.53s1.21-20,25.49-20.69l-4.58-1S83.59,14.19,78.79,39.56Z"/><path class="cls-4" d="M41.41,13.73c0,1,1.41,1.85,3.15,1.85s3.15-.82,3.15-1.85-1.41-1.84-3.15-1.84S41.41,12.71,41.41,13.73Z"/></g></g></g></svg>